<svg width="607" height="67" viewBox="0 0 607 67" fill="none" xmlns="http://www.w3.org/2000/svg">
<path fill-rule="evenodd" clip-rule="evenodd" d="M414.672 66.3566C414.602 65.5172 414.475 64.6777 414.475 63.8383C414.468 47.4307 414.47 31.0239 414.503 14.6163C414.504 13.802 413.911 12.4458 415.226 12.3226C416.516 12.2021 418.16 11.4648 419.131 13.1382C419.576 13.9041 419.8 14.5557 420.945 13.7564C427.183 9.39991 435.835 15.1269 436.022 22.3108C436.222 29.9563 436.245 37.6155 436.035 45.261C435.824 52.9446 427.345 57.8227 420.724 53.8569C420.724 57.2242 420.634 60.39 420.767 63.5462C420.822 64.9024 420.395 65.7527 419.268 66.3559C417.736 66.3566 416.204 66.3566 414.672 66.3566ZM420.728 33.8594C420.733 33.8594 420.737 33.8594 420.742 33.8594C420.742 37.3445 420.697 40.8302 420.756 44.3146C420.805 47.2911 422.524 49.1185 425.16 49.1627C427.791 49.207 429.709 47.4144 429.749 44.457C429.847 37.4024 429.849 30.3451 429.754 23.2912C429.716 20.3855 427.715 18.4785 425.178 18.5228C422.621 18.567 420.784 20.5305 420.741 23.4029C420.69 26.8879 420.728 30.3736 420.728 33.8594Z" fill="#26406C"/>
<path fill-rule="evenodd" clip-rule="evenodd" d="M390.926 15.9607C393.954 12.059 397.927 11.3237 402.303 12.9876C406.802 14.6978 409.184 18.1781 409.216 23.0112C409.285 33.2159 409.209 43.422 409.259 53.628C409.266 55.0849 408.802 55.6609 407.358 55.4873C406.771 55.4165 406.16 55.4144 405.575 55.4927C403.621 55.7562 402.948 55.0836 402.973 52.988C403.091 43.1238 403.05 33.2574 403.013 23.3911C403.001 20.5385 401.089 18.5553 398.534 18.5253C396.055 18.4961 394.254 20.2669 393.993 23.0643C393.898 24.0767 393.926 25.1033 393.926 26.1225C393.931 34.7974 393.97 43.4723 393.914 52.1479C393.906 53.225 394.696 54.9161 393.265 55.3076C391.691 55.7385 389.865 55.5908 388.222 55.2933C387.207 55.1094 387.678 53.8282 387.675 53.0432C387.65 43.6881 387.668 34.3331 387.665 24.9767C387.665 24.0426 387.744 23.0766 387.543 22.1813C387.034 19.9271 385.533 18.605 383.227 18.5635C380.933 18.5226 379.329 19.6997 378.814 22.0077C378.596 22.9894 378.593 24.0324 378.592 25.0482C378.576 34.4032 378.522 43.7596 378.629 53.114C378.651 55.0795 378.046 55.5656 376.175 55.5179C372.295 55.4199 372.294 55.52 372.295 51.542C372.296 46.2691 372.295 40.9962 372.295 35.7226C372.297 28.664 372.278 21.6053 372.329 14.5466C372.334 13.7515 371.7 12.3483 373.124 12.2973C374.413 12.2523 376.019 11.4531 377.039 13.136C377.349 13.6487 377.354 14.6304 378.634 13.9142C383.409 11.2454 386.119 11.6954 390.238 15.5025C390.421 15.6721 390.656 15.7837 390.926 15.9607Z" fill="#26406C"/>
<path fill-rule="evenodd" clip-rule="evenodd" d="M213.467 14.0139C213.467 10.5751 213.601 7.42429 213.416 4.29255C213.307 2.45572 214.031 1.82121 215.662 1.35281C219.647 0.207687 219.623 0.127327 219.623 4.37491C219.623 20.5245 219.637 36.672 219.592 52.8215C219.59 53.6943 220.27 55.1683 218.821 55.3603C217.539 55.5305 215.863 56.197 214.942 54.4643C214.416 53.4757 213.937 53.537 212.975 54.0599C206.706 57.4721 198.609 53.3308 198.26 46.1713C197.861 37.9485 197.931 29.6814 198.26 21.4517C198.518 15.0364 207.241 9.37277 213.467 14.0139ZM213.465 33.8622C213.465 30.5447 213.488 27.2277 213.459 23.9115C213.43 20.7021 211.61 18.576 208.923 18.5338C206.139 18.4909 204.347 20.4877 204.33 23.7917C204.298 30.5099 204.302 37.2289 204.328 43.9471C204.34 47.2382 206.123 49.2213 208.929 49.1778C211.652 49.1349 213.432 47.0543 213.459 43.8123C213.485 40.4954 213.464 37.1785 213.465 33.8622Z" fill="#26406C"/>
<path fill-rule="evenodd" clip-rule="evenodd" d="M246.383 42.0114C247.094 48.0788 244.549 52.8588 239.664 54.78C235.153 56.5549 229.839 54.9918 226.919 50.9838C225.471 48.9979 224.834 46.7165 224.826 44.2819C224.802 37.3914 224.755 30.5003 224.832 23.6111C224.907 16.9283 229.746 12.0618 235.996 12.2157C242.195 12.3689 246.709 17.5655 246.568 24.1864C246.455 29.5349 244.375 33.6844 239.762 36.5186C237.445 37.9415 235.279 39.6374 232.878 40.8908C230.58 42.0897 231.108 43.9592 231.361 45.7178C231.627 47.5703 232.923 48.7011 234.768 49.047C236.81 49.4302 239.138 48.8393 239.457 46.9521C240.189 42.6296 243.673 43.1062 246.383 42.0114ZM231.243 27.7865C231.23 27.7865 231.217 27.7865 231.204 27.7865C231.204 29.5628 231.19 31.339 231.211 33.1159C231.219 33.7859 231.119 34.5068 232.297 34.163C237.055 32.7735 240.38 28.0568 240.123 22.9392C239.997 20.4447 238.186 18.601 235.801 18.5404C233.412 18.4792 231.442 20.2193 231.265 22.7152C231.147 24.3975 231.243 26.0954 231.243 27.7865Z" fill="#2A436E"/>
<path fill-rule="evenodd" clip-rule="evenodd" d="M345.519 33.9446C345.519 30.4595 345.462 26.9724 345.531 23.4887C345.664 16.8242 350.233 12.1511 356.459 12.224C362.482 12.2948 367.044 17.1163 367.084 23.5602C367.127 30.4459 367.134 37.333 367.072 44.2181C367.014 50.7273 362.556 55.3609 356.382 55.4658C350.325 55.5679 345.719 50.9139 345.549 44.4005C345.458 40.9175 345.533 37.4297 345.533 33.9446C345.528 33.9446 345.524 33.9446 345.519 33.9446ZM351.748 33.8221C351.748 37.2214 351.714 40.6213 351.757 44.0199C351.799 47.249 353.416 49.0893 356.164 49.1635C358.843 49.2343 360.808 47.3273 360.851 44.2358C360.945 37.3534 360.942 30.467 360.862 23.584C360.826 20.5204 358.859 18.5127 356.258 18.5297C353.589 18.5474 351.806 20.5143 351.761 23.6228C351.71 27.0215 351.749 30.4221 351.748 33.8221Z" fill="#26406C"/>
<path fill-rule="evenodd" clip-rule="evenodd" d="M584.38 53.0379C584.338 39.954 584.294 26.8702 584.264 13.7864C584.262 13.1593 584.049 12.181 585.078 12.2743C586.397 12.3934 588.084 11.3688 588.965 13.111C589.628 14.4236 590.081 14.1976 591.179 13.48C595.697 10.5246 603.039 13.4677 604.859 18.5534C605.83 21.2664 606.01 23.9427 606.005 26.7238C605.99 35.4777 605.932 44.2316 606.047 52.9841C606.073 55.0204 605.494 55.7979 603.488 55.4936C602.906 55.4051 602.29 55.4139 601.707 55.4936C599.96 55.7353 599.593 54.9312 599.604 53.3068C599.674 43.6188 599.643 33.9302 599.631 24.2416C599.629 23.0658 599.761 21.8567 599.032 20.7939C597.798 18.9959 596.148 18.1823 593.989 18.7372C591.537 19.3683 590.66 21.1616 590.66 23.5213C590.656 32.3602 590.687 41.1986 590.635 50.0369C590.626 51.6967 591.033 53.4062 590.317 55.0286C590.317 44.0226 590.317 33.0166 590.317 21.583C589.567 22.7662 589.824 23.6193 589.822 24.4199C589.8 33.5816 589.812 42.744 589.802 51.905C589.801 52.8901 590.036 54.1496 588.447 54.0632C587.42 54.0074 585.886 54.7726 585.729 52.7771C585.697 52.3775 585.701 51.7382 585.187 51.8778C584.838 51.9703 584.643 52.6314 584.38 53.0379Z" fill="#2A436E"/>
<path fill-rule="evenodd" clip-rule="evenodd" d="M39.3014 19.655C40.836 14.762 45.6888 11.6078 50.6791 12.2593C55.9867 12.9524 60.0982 17.456 60.2588 22.8603C60.4318 28.6894 58.5677 33.5068 53.3023 36.6331C51.0413 37.9756 48.9669 39.66 46.631 40.8398C44.1719 42.0803 44.8473 44.0873 45.0978 45.8819C45.3552 47.7282 46.761 48.7876 48.6115 49.077C50.6682 49.3983 52.8645 48.7475 53.2261 46.8255C53.8919 43.2887 56.5607 43.0967 59.0381 42.3186C59.3568 42.2192 59.6767 42.1238 60.0042 42.0244C61.0207 48.2028 57.6956 53.7977 52.2736 55.1062C46.4717 56.5066 41.1096 53.6295 39.3116 48.151C39.1904 46.5743 39.9346 44.8838 38.6948 43.4555C38.432 42.1987 38.4368 40.9426 38.6921 39.6858C38.6301 33.001 39.6507 26.3487 39.3014 19.655ZM44.9521 34.8759C46.9204 33.5899 48.3916 32.6142 49.8778 31.6611C53.1185 29.5819 54.0451 26.4536 53.8572 22.8439C53.7278 20.3603 51.8079 18.5432 49.3849 18.5208C47.0872 18.4997 45.0624 20.2228 44.9862 22.6063C44.8616 26.5026 44.9521 30.4057 44.9521 34.8759Z" fill="#26406C"/>
<path fill-rule="evenodd" clip-rule="evenodd" d="M557.595 33.5272C557.595 29.7909 557.695 26.0512 557.572 22.3197C557.377 16.4388 563.696 12.2341 567.91 12.1994C573.593 12.1517 578.787 16.3823 578.966 21.9806C579.219 29.8692 579.285 37.7816 578.969 45.6647C578.65 53.6472 569.226 58.0207 562.439 53.7732C559.061 51.6592 557.587 48.8039 557.576 44.99C557.565 41.1693 557.574 37.3486 557.574 33.5279C557.58 33.5272 557.587 33.5272 557.595 33.5272ZM563.726 33.9473C563.729 33.9473 563.732 33.9473 563.736 33.9473C563.736 37.4337 563.695 40.9215 563.749 44.4066C563.791 47.2067 565.47 49.0014 568.029 49.1416C570.65 49.2859 572.784 47.4927 572.835 44.6217C572.961 37.4814 572.957 30.3349 572.841 23.1938C572.796 20.331 570.669 18.4465 568.119 18.5391C565.538 18.6331 563.779 20.5639 563.738 23.488C563.689 26.9744 563.726 30.4608 563.726 33.9473Z" fill="#26406C"/>
<path fill-rule="evenodd" clip-rule="evenodd" d="M65.4507 33.7081C65.448 27.3268 65.4221 20.9456 65.48 14.565C65.4875 13.7794 64.8176 12.4 66.2432 12.2999C67.4768 12.2135 69.1013 11.4735 69.9679 12.9937C70.7373 14.3438 71.2778 14.1096 72.4413 13.3899C78.316 9.7578 86.739 14.9531 86.9453 22.4175C87.1264 28.9635 86.9937 35.5183 86.9984 42.0698C87.0012 45.8129 86.9379 49.5581 87.0352 53.2991C87.0774 54.899 86.6948 55.537 84.9349 55.5206C80.7513 55.4818 80.7493 55.5785 80.7486 51.3683C80.7472 42.0092 80.7765 32.6501 80.7282 23.2917C80.7139 20.5303 78.8974 18.641 76.4186 18.5266C73.9772 18.415 71.9858 20.2246 71.6679 22.9029C71.578 23.6586 71.6209 24.432 71.6203 25.1973C71.6162 34.4706 71.4977 43.7473 71.687 53.0166C71.7428 55.7473 70.341 55.5533 68.5777 55.4914C66.9472 55.4335 65.2676 56.021 65.3786 53.1037C65.6237 46.6469 65.4541 40.1737 65.4507 33.7081Z" fill="#26406C"/>
<path fill-rule="evenodd" clip-rule="evenodd" d="M462.699 13.2622C462.752 26.7668 462.809 40.2707 462.849 53.7753C462.85 54.405 463.075 55.3888 462.124 55.3929C460.851 55.3997 459.283 56.1594 458.361 54.7161C457.541 53.4328 456.958 53.6792 455.815 54.388C450.202 57.8676 441.654 52.9304 441.422 45.7124C441.078 35.0189 441.323 24.3063 441.275 13.6012C441.269 12.4207 441.802 12.2539 442.809 12.1892C447.484 11.8849 447.484 11.8556 447.486 16.5396C447.491 25.6305 447.46 34.7207 447.516 43.8116C447.538 47.5411 449.907 49.7054 453.043 49.0715C454.371 48.8026 455.31 47.9788 456.116 46.9555C457.581 46.5294 457.029 45.3012 457.033 44.4011C457.075 35.8597 457.058 27.3175 457.058 18.7754C457.058 13.2254 457.058 13.2254 462.699 13.2622Z" fill="#26406C"/>
<path fill-rule="evenodd" clip-rule="evenodd" d="M514.74 37.9717C514.74 42.9858 514.769 48.0007 514.71 53.0149C514.7 53.8305 515.31 55.1819 513.957 55.3535C512.643 55.521 511.026 56.1514 510.03 54.5303C509.543 53.7365 509.124 53.0639 508.107 53.9353C503.743 57.6737 495.172 54.3568 493.566 47.5153C492.446 42.7421 493.695 38.5374 497.612 35.4261C500.202 33.3694 503.034 31.6204 505.659 29.6058C508.576 27.3673 509.345 24.6237 508.147 21.5185C506.848 18.1532 502.475 17.3696 500.383 20.2855C499.519 21.4899 498.979 21.3864 497.999 20.743C496.838 19.9819 494.695 19.8641 494.666 18.4439C494.628 16.5941 496.035 14.9732 497.714 13.9921C501.317 11.885 505.115 11.4656 508.884 13.4645C512.522 15.3939 514.636 18.4739 514.705 22.6745C514.789 27.7724 514.725 32.873 514.725 37.9723C514.73 37.9716 514.736 37.9717 514.74 37.9717ZM508.55 34.4825C507.077 36.1941 505.643 37.2201 504.179 38.2283C502.793 39.1828 501.3 40.027 500.385 41.5575C499.189 43.5563 498.887 45.5375 500.401 47.4758C501.708 49.1465 503.531 49.5577 505.443 48.9102C507.639 48.1682 508.521 46.3586 508.542 44.1262C508.57 41.068 508.55 38.0105 508.55 34.4825Z" fill="#26406C"/>
<path fill-rule="evenodd" clip-rule="evenodd" d="M298.809 38.0668C298.813 43.0797 298.841 48.0932 298.785 53.1053C298.776 53.9134 299.38 55.2274 297.969 55.3969C296.772 55.5399 295.095 56.1124 294.403 54.8849C293.353 53.0256 292.605 53.7602 291.311 54.5078C285.88 57.6456 277.963 52.8009 277.32 45.9969C276.895 41.5042 278.454 37.8095 282.076 35.0896C284.654 33.1534 287.38 31.4105 289.928 29.4369C292.557 27.4012 293.241 24.8523 292.271 21.7335C291.746 20.0417 290.615 18.9823 288.886 18.6439C287.196 18.3137 285.619 18.6038 284.549 20.0757C282.449 22.9637 281.107 19.8197 279.542 19.3567C277.682 18.8066 278.906 17.396 279.452 16.4919C281.424 13.2227 284.648 12.2334 288.177 12.2593C292.216 12.2892 295.3 14.2398 297.383 17.6942C298.363 19.32 298.834 21.0969 298.818 23.0277C298.779 28.0405 298.806 33.054 298.809 38.0668ZM292.547 34.6716C290.52 36.8496 288.472 38.0682 286.526 39.4128C285.443 40.1617 284.574 41.091 284.041 42.2477C283.166 44.1465 283.133 46.0575 284.644 47.7085C285.987 49.1756 287.72 49.5317 289.537 48.9081C291.51 48.2313 292.494 46.6607 292.532 44.606C292.591 41.4831 292.547 38.3582 292.547 34.6716Z" fill="#26406C"/>
<path fill-rule="evenodd" clip-rule="evenodd" d="M151.341 37.9455C151.341 42.9651 151.364 47.9854 151.317 53.0057C151.309 53.8377 151.851 55.1816 150.573 55.3579C149.265 55.539 147.615 56.1688 146.653 54.5151C146.155 53.6586 145.726 53.116 144.74 53.9534C140.388 57.6482 131.837 54.3844 130.196 47.4843C129.018 42.5335 130.491 38.386 134.484 35.2549C136.956 33.3167 139.542 31.5152 142.159 29.7765C144.884 27.9648 145.459 25.3879 145.029 22.425C144.764 20.5998 143.709 19.2912 141.908 18.7548C140.162 18.2346 138.288 18.3232 137.302 19.9312C136.267 21.6196 135.426 21.1819 134.103 20.4942C130.658 18.7044 130.4 17.2529 133.524 14.7053C136.894 11.9569 140.759 11.4149 144.767 13.1326C148.568 14.7611 151.039 17.6832 151.23 21.8681C151.473 27.2173 151.289 32.5855 151.289 37.9455C151.307 37.9455 151.324 37.9455 151.341 37.9455ZM145.063 34.7947C143.074 36.7629 141.04 38.0823 139.053 39.4651C137.686 40.4155 136.744 41.6695 136.237 43.2776C135.659 45.1083 136.169 46.6504 137.458 47.9337C138.795 49.2647 140.484 49.5009 142.188 48.8603C143.901 48.2162 145.012 46.9206 145.047 45.0144C145.106 41.7288 145.063 38.4418 145.063 34.7947Z" fill="#26406C"/>
<path fill-rule="evenodd" clip-rule="evenodd" d="M0.0491783 27.5865C0.0498591 21.803 -0.0658761 16.0167 0.0818601 10.2366C0.231639 4.40481 5.46775 -0.253972 11.2805 0.0115445C17.0756 0.2757 21.5894 5.11289 21.5921 10.9018C21.5928 12.3669 21.1339 12.8891 19.7151 12.7339C18.958 12.6501 18.1765 12.6358 17.4221 12.7257C15.921 12.9034 15.3729 12.4323 15.3239 10.8004C15.2408 8.0349 13.327 6.35946 10.742 6.38261C8.16445 6.40507 6.32559 8.10573 6.30584 10.9624C6.23027 22.189 6.23163 33.4163 6.3106 44.6435C6.32898 47.2844 7.98676 48.9156 10.3192 49.1417C12.6272 49.365 14.6546 47.9421 15.296 45.6484C15.7242 44.1193 19.5354 41.8624 21.0175 42.2124C21.6227 42.3553 21.4948 42.7849 21.556 43.1662C22.4983 49.079 18.0982 54.6678 11.9484 55.3704C5.88782 56.0628 0.256135 51.4775 0.0859323 45.4476C-0.0822283 39.4979 0.0484974 33.5408 0.0491783 27.5865Z" fill="#26406C"/>
<path fill-rule="evenodd" clip-rule="evenodd" d="M318.632 27.7409C318.634 21.9594 318.549 16.1759 318.658 10.3958C318.766 4.6804 323.752 -0.013785 329.472 0.00936259C335.216 0.0318294 340.007 4.75054 340.258 10.4571C340.336 12.2238 339.863 12.9843 338.035 12.7303C337.284 12.6262 336.501 12.6493 335.743 12.7235C334.472 12.8474 334.012 12.4396 333.921 11.0603C333.711 7.88772 331.85 6.21564 329.088 6.39197C326.483 6.55809 324.915 8.36838 324.904 11.4817C324.867 22.3645 324.863 33.2486 324.897 44.1314C324.906 47.1283 326.388 48.8671 328.915 49.1327C331.441 49.3968 333.172 48.0223 333.928 45.1526C334.218 44.0545 338.82 41.7806 339.829 42.2286C340.339 42.4559 340.186 42.9209 340.235 43.3056C340.996 49.3941 336.418 54.9182 330.203 55.4125C324.135 55.8952 318.784 51.2003 318.656 45.0852C318.536 39.3065 318.631 33.523 318.632 27.7409Z" fill="#26406C"/>
<path fill-rule="evenodd" clip-rule="evenodd" d="M156.611 43.9946C156.198 41.9148 157.029 41.4865 159.258 42.2232C161.219 42.872 163.294 42.6637 163.2 45.8628C163.135 48.0877 165.784 49.4691 168.143 49.1055C170.499 48.742 172.203 46.6083 171.977 44.1785C171.788 42.149 170.804 40.5034 169.336 39.0996C166.807 36.6814 163.857 34.8016 161.152 32.6122C154.311 27.0751 155.349 16.2073 163.106 12.6446C166.902 10.9011 170.609 11.4253 173.929 13.8946C177.462 16.5239 178.525 20.267 178.25 24.5003C178.234 24.7474 178.178 25.1804 178.068 25.2042C176.429 25.5658 174.987 24.6242 173.421 24.4479C172.592 24.3546 171.954 24.0571 172.01 23.0243C172.037 22.5232 171.981 21.999 171.859 21.5122C171.277 19.192 169.207 17.7609 166.904 18.0462C164.483 18.3464 162.979 20.0648 162.961 22.5661C162.942 25.1266 164.065 27.201 165.937 28.8078C168.319 30.8529 170.834 32.7429 173.289 34.705C178.29 38.702 179.755 45.6783 176.593 50.4222C173.763 54.6677 168.978 56.4195 164.113 54.9904C159.696 53.6921 156.659 49.3533 156.611 43.9946Z" fill="#26406C"/>
<path fill-rule="evenodd" clip-rule="evenodd" d="M476.579 0.0515137C476.579 3.70952 476.638 7.01961 476.552 10.3263C476.514 11.7301 476.882 12.3197 478.387 12.2387C480.506 12.125 482.637 12.2707 484.76 12.1904C486.052 12.1413 486.503 12.5376 486.558 13.8985C486.741 18.509 486.802 18.5063 482.26 18.4872C476.575 18.4627 476.575 18.4627 476.575 24.2047C476.575 30.3259 476.573 36.4464 476.577 42.5669C476.577 43.4165 476.53 44.2757 476.63 45.1145C476.864 47.0602 477.395 49.0182 479.741 49.1285C482.154 49.2422 482.865 47.372 482.955 45.3609C483.006 44.2083 483.478 43.6875 484.499 43.3981C485.965 42.9842 487.415 42.5076 488.877 42.0569C490.467 49.7896 485.894 55.7862 478.875 55.2585C474.911 54.9603 471.664 52.0036 470.805 47.9317C470.111 44.6488 470.425 41.3237 470.4 38.0163C470.356 32.2362 470.34 26.4548 470.418 20.6747C470.439 19.0999 470.121 18.1999 468.349 18.492C466.705 18.7629 466.254 17.9119 466.367 16.4461C466.431 15.6006 466.45 14.74 466.369 13.8979C466.235 12.522 466.86 11.9875 468.138 12.2251C470.228 12.6132 470.52 11.5198 470.415 9.79119C470.296 7.84407 470.49 5.87583 470.354 3.93007C470.251 2.47382 470.734 1.76104 472.155 1.43765C473.547 1.12108 474.89 0.591398 476.579 0.0515137Z" fill="#26406C"/>
<path fill-rule="evenodd" clip-rule="evenodd" d="M541.487 41.9896C542.327 50.8756 536.387 56.7333 528.355 55.1851C523.847 54.3164 520.068 50.0294 519.979 45.2119C519.84 37.6501 519.801 30.0795 519.983 22.5191C520.127 16.5463 525.467 11.9045 531.388 12.2184C537.181 12.5248 541.845 17.6628 541.672 23.4695C541.641 24.5077 541.419 25.0925 540.253 25.0034C539.493 24.9448 538.719 24.9387 537.96 25.0041C536.244 25.1511 535.154 24.9755 535.189 22.6838C535.227 20.188 533.058 18.4982 530.615 18.5636C528.303 18.6262 526.437 20.2928 526.404 22.7914C526.305 30.1837 526.319 37.5793 526.392 44.9722C526.415 47.319 527.808 48.7691 530.139 49.0884C532.441 49.4037 534.582 48.4036 534.91 46.2481C535.293 43.7386 536.83 43.3812 538.61 42.8611C539.498 42.6031 540.38 42.3266 541.487 41.9896Z" fill="#2A436E"/>
<path fill-rule="evenodd" clip-rule="evenodd" d="M113.777 41.9905C115.034 51.2005 107.767 56.7743 100.616 55.1812C96.3534 54.2315 92.5239 50.297 92.4211 45.9126C92.2332 37.9274 92.1773 29.9299 92.4163 21.948C92.5851 16.3102 98.0616 11.8775 103.774 12.2288C109.571 12.5848 114.221 17.8196 113.948 23.5629C113.895 24.6713 113.586 25.0866 112.483 25.0008C111.553 24.9279 110.604 24.8987 109.681 25.0062C108.165 25.1832 107.673 24.6944 107.611 23.0863C107.502 20.278 105.346 18.3983 102.831 18.5303C100.355 18.6604 98.6321 20.5286 98.6131 23.3532C98.5661 30.4078 98.5681 37.4644 98.6206 44.519C98.641 47.2034 100.073 48.8033 102.459 49.1077C104.921 49.4215 106.995 48.0967 107.499 45.5048C107.756 44.1854 108.328 43.6271 109.496 43.3112C110.881 42.9361 112.242 42.4684 113.777 41.9905Z" fill="#26406C"/>
<path fill-rule="evenodd" clip-rule="evenodd" d="M269.084 1.26682C269.483 0.850842 270.009 0.976783 270.496 0.933892C271.385 0.886235 272.098 1.17966 272.547 1.98711C272.548 2.3527 272.55 2.71765 272.551 3.08324C271.938 4.018 272.224 5.06713 272.221 6.0618C272.196 22.4435 272.195 38.8252 272.189 55.2055C271.886 55.4819 271.551 55.4629 271.202 55.3131C271.164 54.9366 271.219 54.3879 270.789 54.3327C270.093 54.2428 270.242 54.9012 270.159 55.3213C269.146 55.565 268.132 55.5623 267.117 55.3219C267.113 39.3617 267.147 23.4007 267.064 7.44179C267.051 5.0712 267.232 2.9423 269.084 1.26682Z" fill="#26406C"/>
<path fill-rule="evenodd" clip-rule="evenodd" d="M33.1619 34.66C33.1606 40.7716 33.0687 46.8846 33.2109 52.9929C33.2593 55.0523 32.6289 55.7958 30.6409 55.499C30.1432 55.4248 29.6156 55.4288 29.1159 55.501C27.3417 55.7563 26.7814 55.0442 26.8079 53.2523C26.9019 46.8874 26.8426 40.5211 26.8413 34.1548C26.8406 28.8921 26.9699 23.6247 26.7786 18.3688C26.6929 16.0023 27.4384 14.9273 29.7286 14.3091C33.5051 13.2886 33.1619 12.6364 33.1633 16.8343C33.164 22.7764 33.1626 28.7179 33.1619 34.66Z" fill="#2A436E"/>
<path fill-rule="evenodd" clip-rule="evenodd" d="M552.037 13.2341C552.037 20.1832 552.037 26.7973 552.037 33.4114C552.037 40.0343 551.974 46.6579 552.08 53.2788C552.109 55.0925 551.55 55.7468 549.787 55.4989C549.12 55.405 548.423 55.4213 547.752 55.4996C546.159 55.6841 545.751 54.9808 545.758 53.4538C545.815 41.3973 545.814 29.3408 545.772 17.2843C545.766 15.9002 546.038 15.0737 547.536 14.7414C548.987 14.4187 550.375 13.8047 552.037 13.2341Z" fill="#26406C"/>
<path fill-rule="evenodd" clip-rule="evenodd" d="M124.276 34.4878C124.279 40.688 124.206 46.8902 124.323 53.0876C124.358 54.9762 123.869 55.7836 121.921 55.4963C121.173 55.3867 120.39 55.4282 119.631 55.4922C118.37 55.5964 118.045 54.9939 118.048 53.829C118.076 41.5131 118.081 29.1979 118.049 16.882C118.046 15.775 118.358 15.1276 119.461 14.8607C120.2 14.681 120.947 14.4563 121.627 14.1234C123.57 13.1723 124.391 13.3935 124.327 15.8887C124.167 22.0848 124.274 28.2877 124.276 34.4878Z" fill="#26406C"/>
<path fill-rule="evenodd" clip-rule="evenodd" d="M269.084 1.26709C267.232 2.94257 267.051 5.07147 267.063 7.44206C267.147 23.401 267.113 39.3619 267.117 55.3222C265.642 55.2099 266.279 54.0566 266.277 53.386C266.241 36.9954 266.315 20.6042 266.185 4.21435C266.166 1.82538 267.55 1.6817 269.084 1.26709Z" fill="#2A436E"/>
<path fill-rule="evenodd" clip-rule="evenodd" d="M124.248 3.5986C124.28 6.21156 123.02 7.9061 121.266 7.87682C119.551 7.84823 118.058 5.99642 118.071 3.91586C118.085 1.85573 119.652 -0.119992 121.334 0.0420409C123.575 0.257177 124.105 1.95648 124.248 3.5986Z" fill="#2A436E"/>
<path fill-rule="evenodd" clip-rule="evenodd" d="M26.8726 3.87034C26.9107 1.88509 28.58 -0.0416182 30.2147 0.0128468C31.8527 0.0679925 33.3083 2.02668 33.1224 4.1549C32.959 6.02713 32.3783 7.74483 30.0533 7.8136C28.354 7.86398 26.8337 5.90324 26.8726 3.87034Z" fill="#2A436E"/>
<path fill-rule="evenodd" clip-rule="evenodd" d="M545.803 3.80969C545.845 1.76317 547.512 -0.226846 549.138 0.0420749C551.277 0.396097 551.964 2.03279 552.012 3.96493C552.068 6.21774 550.636 7.91433 548.878 7.83127C547.129 7.74889 545.76 5.95765 545.803 3.80969Z" fill="#2A436E"/>
<path fill-rule="evenodd" clip-rule="evenodd" d="M584.38 53.038C584.643 52.6309 584.838 51.9704 585.187 51.8758C585.701 51.7362 585.697 52.3755 585.729 52.7752C585.886 54.7706 587.42 54.0054 588.447 54.0612C590.036 54.1477 589.801 52.8882 589.802 51.9031C589.812 42.7421 589.8 33.5797 589.822 24.418C589.824 23.6174 589.567 22.7643 590.317 21.5811C590.317 33.0146 590.317 44.0206 590.317 55.0266C588.719 56.2698 586.853 55.6564 585.165 55.54C583.718 55.4412 584.384 53.9775 584.38 53.038Z" fill="#26406C"/>
<path fill-rule="evenodd" clip-rule="evenodd" d="M272.189 55.2055C272.195 38.8245 272.196 22.4428 272.221 6.0618C272.223 5.06782 271.938 4.01869 272.551 3.08325C272.589 14.0995 272.633 25.1157 272.662 36.1319C272.677 41.7261 272.691 47.3217 272.642 52.9153C272.635 53.671 273.158 54.6118 272.189 55.2055Z" fill="#2A436E"/>
<path fill-rule="evenodd" clip-rule="evenodd" d="M573.562 3.73219C569.406 8.56595 569.406 8.56595 565.263 8.09551C566.785 3.66206 567.423 3.31417 573.562 3.73219Z" fill="#2A436E"/>
<path fill-rule="evenodd" clip-rule="evenodd" d="M462.699 13.2622C457.058 13.2255 457.058 13.2255 457.058 18.7741C457.058 27.3155 457.074 35.8583 457.033 44.3998C457.029 45.2998 457.582 46.528 456.116 46.9542C456.716 45.6825 456.632 44.3195 456.632 42.9708C456.635 33.7335 456.762 24.4922 456.553 15.2597C456.492 12.5276 457.377 11.8359 459.807 12.2008C460.553 12.3132 461.331 12.1906 462.092 12.2226C462.786 12.2526 462.926 12.6658 462.699 13.2622Z" fill="#2A436E"/>
<path fill-rule="evenodd" clip-rule="evenodd" d="M39.3015 19.6548C39.6514 26.3485 38.6308 33.0007 38.6921 39.6856C38.3653 33.7987 38.4634 27.9096 38.6506 22.0226C38.6765 21.2193 38.62 20.3138 39.3015 19.6548Z" fill="#2A436E"/>
<path fill-rule="evenodd" clip-rule="evenodd" d="M38.6948 43.4553C39.9346 44.8843 39.1911 46.5741 39.3116 48.1509C38.528 46.6612 38.3714 45.09 38.6948 43.4553Z" fill="#2A436E"/>
<path fill-rule="evenodd" clip-rule="evenodd" d="M272.547 1.98717C272.098 1.17904 271.385 0.885614 270.496 0.933951C271.691 0.289903 273.045 -0.663235 272.547 1.98717Z" fill="#2A436E"/>
<path fill-rule="evenodd" clip-rule="evenodd" d="M270.159 55.3213C270.242 54.9013 270.092 54.2429 270.788 54.3328C271.218 54.3879 271.164 54.9373 271.202 55.3132C270.854 55.3159 270.507 55.3186 270.159 55.3213Z" fill="#2A436E"/>
<path fill-rule="evenodd" clip-rule="evenodd" d="M420.728 33.8594C420.728 30.3737 420.69 26.8879 420.741 23.4035C420.783 20.5312 422.621 18.5677 425.177 18.5235C427.715 18.4792 429.716 20.3862 429.754 23.2919C429.849 30.3458 429.847 37.4031 429.749 44.4576C429.708 47.4151 427.791 49.2083 425.16 49.1634C422.524 49.1192 420.806 47.2919 420.756 44.3154C420.697 40.831 420.742 37.3452 420.742 33.8601C420.737 33.8595 420.733 33.8594 420.728 33.8594Z" fill="#F4F4F6"/>
<path fill-rule="evenodd" clip-rule="evenodd" d="M213.465 33.8621C213.465 37.1783 213.485 40.4952 213.459 43.8115C213.432 47.0535 211.652 49.1334 208.929 49.1769C206.124 49.2205 204.34 47.2373 204.328 43.9463C204.302 37.228 204.298 30.509 204.33 23.7908C204.346 20.4868 206.139 18.49 208.923 18.5329C211.61 18.5751 213.429 20.7013 213.459 23.9106C213.488 27.2282 213.465 30.5445 213.465 33.8621Z" fill="#F4F4F6"/>
<path fill-rule="evenodd" clip-rule="evenodd" d="M231.243 27.7867C231.243 26.0955 231.146 24.3976 231.265 22.7146C231.442 20.2188 233.412 18.4786 235.801 18.5399C238.186 18.6005 239.997 20.4448 240.123 22.9386C240.38 28.057 237.056 32.7729 232.297 34.1625C231.12 34.5063 231.219 33.7853 231.211 33.1154C231.19 31.3392 231.204 29.5622 231.204 27.786C231.217 27.7867 231.23 27.7867 231.243 27.7867Z" fill="#F4F4F6"/>
<path fill-rule="evenodd" clip-rule="evenodd" d="M351.749 33.8219C351.749 30.4219 351.71 27.0219 351.76 23.6233C351.805 20.5147 353.589 18.5478 356.257 18.5301C358.858 18.5131 360.826 20.5208 360.861 23.5845C360.941 30.4675 360.944 37.3539 360.85 44.2362C360.807 47.3278 358.842 49.2355 356.164 49.164C353.415 49.0904 351.798 47.2495 351.757 44.0204C351.714 40.6211 351.748 37.2211 351.749 33.8219Z" fill="#F4F4F6"/>
<path fill-rule="evenodd" clip-rule="evenodd" d="M44.9522 34.8759C44.9522 30.4064 44.861 26.5026 44.9863 22.607C45.0625 20.2242 47.0873 18.5003 49.385 18.5214C51.808 18.5439 53.7279 20.361 53.8573 22.8446C54.0452 26.4536 53.1186 29.5826 49.8779 31.6618C48.3924 32.6136 46.9205 33.5899 44.9522 34.8759Z" fill="#F4F4F6"/>
<path fill-rule="evenodd" clip-rule="evenodd" d="M563.726 33.9473C563.726 30.4608 563.689 26.9744 563.738 23.488C563.779 20.5646 565.538 18.6331 568.119 18.5391C570.668 18.4472 572.795 20.331 572.841 23.1938C572.957 30.3349 572.961 37.4807 572.835 44.6217C572.785 47.4927 570.65 49.2859 568.029 49.1416C565.47 49.0014 563.791 47.2067 563.749 44.4066C563.695 40.9215 563.736 37.4337 563.736 33.9473C563.731 33.9473 563.728 33.9473 563.726 33.9473Z" fill="#F4F4F6"/>
<path fill-rule="evenodd" clip-rule="evenodd" d="M508.55 34.4824C508.55 38.0104 508.57 41.0679 508.542 44.1261C508.522 46.3585 507.639 48.1688 505.443 48.9102C503.531 49.5569 501.708 49.1464 500.401 47.4757C498.886 45.5367 499.189 43.5556 500.385 41.5574C501.3 40.0269 502.794 39.1834 504.179 38.2283C505.643 37.2207 507.077 36.194 508.55 34.4824Z" fill="#F4F4F6"/>
<path fill-rule="evenodd" clip-rule="evenodd" d="M292.547 34.6716C292.547 38.3582 292.591 41.4831 292.532 44.606C292.493 46.6614 291.51 48.2313 289.537 48.9081C287.72 49.5317 285.988 49.1763 284.644 47.7085C283.133 46.0568 283.166 44.1465 284.041 42.2477C284.574 41.091 285.443 40.1617 286.526 39.4128C288.473 38.0682 290.521 36.8495 292.547 34.6716Z" fill="#F4F4F6"/>
<path fill-rule="evenodd" clip-rule="evenodd" d="M145.063 34.7949C145.063 38.4414 145.106 41.729 145.047 45.0146C145.012 46.9215 143.901 48.2164 142.188 48.8605C140.484 49.5004 138.795 49.2649 137.458 47.9339C136.169 46.6506 135.659 45.1092 136.237 43.2779C136.744 41.6705 137.686 40.4164 139.053 39.4653C141.04 38.0832 143.074 36.7631 145.063 34.7949Z" fill="#F4F4F6"/>
</svg>
