<svg width="395" height="370" viewBox="0 0 395 370" fill="none" xmlns="http://www.w3.org/2000/svg">
<path fill-rule="evenodd" clip-rule="evenodd" d="M394.698 313.292C386.067 313.272 377.445 312.93 368.824 312.549C361.846 312.24 354.872 311.841 347.897 311.463C335.435 310.789 322.988 309.889 310.554 308.83C297.406 307.711 284.262 306.545 271.132 305.247C256.777 303.828 242.442 302.219 228.096 300.722C218.751 299.747 209.399 298.838 200.054 297.873C187.284 296.555 174.495 295.425 161.688 294.582C140.764 293.207 119.826 292.518 98.8594 293.773C89.267 294.347 79.7165 295.25 70.212 296.637C52.135 299.274 34.5143 303.73 17.3817 310.08C11.9952 312.076 6.68614 314.269 1.43932 316.613C1.00704 316.806 0.613305 317.278 0.0379639 316.992C0.0379639 316.581 0.0379639 316.169 0.0379639 315.758C10.0192 309.433 20.3568 303.785 31.209 299.078C43.5265 293.735 56.2259 289.573 69.2854 286.496C82.5463 283.372 95.979 281.391 109.555 280.227C129.823 278.488 150.098 278.724 170.376 279.779C184.275 280.503 198.143 281.71 211.989 283.125C228.69 284.831 245.384 286.609 262.079 288.369C273.365 289.56 284.663 290.589 295.981 291.43C310.072 292.478 324.175 293.14 338.308 293.259C340.832 293.28 343.097 294.686 345.449 295.525C361.436 301.225 377.399 306.994 393.372 312.734C393.795 312.886 394.209 313.157 394.698 312.984C394.698 313.086 394.698 313.189 394.698 313.292Z" fill="#223D6C"/>
<path fill-rule="evenodd" clip-rule="evenodd" d="M259.034 369.099C259.343 368.572 259.199 367.993 259.199 367.44C259.211 357.576 259.204 347.713 259.227 337.849C259.228 337.363 258.848 336.526 259.671 336.463C260.449 336.403 261.446 335.945 262.029 336.968C262.294 337.433 262.435 337.826 263.127 337.338C266.842 334.712 272.122 338.131 272.239 342.512C272.363 347.132 272.326 351.758 272.249 356.38C272.185 360.225 267.798 364.15 262.998 361.69C262.998 363.647 262.947 365.526 263.022 367.4C263.055 368.215 262.809 368.74 262.117 369.099C261.09 369.099 260.062 369.099 259.034 369.099ZM263.002 349.504C263.002 351.609 262.976 353.714 263.01 355.819C263.039 357.606 264.1 358.708 265.705 358.713C267.259 358.717 268.416 357.687 268.442 356.001C268.507 351.689 268.508 347.375 268.448 343.063C268.424 341.321 267.186 340.171 265.655 340.209C264.126 340.248 263.029 341.446 263.005 343.188C262.975 345.293 262.997 347.399 263.002 349.504Z" fill="#223D6C"/>
<path fill-rule="evenodd" clip-rule="evenodd" d="M145.242 264.559C137.789 264.73 130.949 264.039 124.125 262.799C117.798 261.649 111.72 259.774 105.739 257.476C100.945 255.634 96.398 253.317 92.0401 250.613C84.9424 246.209 79.0342 240.615 75.3013 233.061C73.3757 229.164 72.2611 224.989 71.8181 220.579C70.7627 210.075 73.7319 200.454 77.6704 190.967C79.143 187.42 80.9008 184.017 82.6259 180.602C84.2086 177.469 86.0764 174.48 87.8181 171.427C90.2 167.252 92.5569 163.063 94.9695 158.906C97.6659 154.26 100.221 149.534 103.068 144.973C105.423 141.199 107.516 137.263 109.864 133.485C112.536 129.187 115.364 124.986 118.121 120.741C123.752 112.073 129.58 103.536 135.777 95.2683C139.7 90.0357 143.82 84.9418 148.082 79.9688C153.984 73.0826 160.077 66.3792 166.33 59.8057C171.819 54.0353 177.462 48.4256 183.137 42.8476C188.101 37.9674 193.272 33.2829 198.655 28.8677C204.821 23.8111 211.202 19.0064 218.253 15.2235C222.264 13.0717 226.423 11.2048 230.962 10.3556C235.442 9.51729 239.852 9.95141 244.127 11.3031C247.286 12.3018 248.668 14.946 249.151 18.0799C249.314 19.1377 249.319 20.22 249.483 21.2775C250.028 24.7974 248.615 27.5733 246.206 29.953C241.828 34.2761 237.142 38.2159 232.111 41.782C229.817 43.4084 227.69 43.1886 225.334 42.3922C223.928 41.9164 222.448 41.6266 221.088 41.0466C217.206 39.3903 213.443 40.0695 209.728 41.5091C203.888 43.7726 198.889 47.3868 194.025 51.2619C190.29 54.2382 186.737 57.4306 183.426 60.8256C179.032 65.33 174.696 69.9012 170.557 74.6649C164.244 81.9319 158.243 89.4425 152.365 97.0514C147.987 102.717 143.832 108.555 139.589 114.325C134.618 121.085 129.958 128.061 125.434 135.12C122.54 139.636 119.816 144.265 117.112 148.905C114.249 153.818 111.615 158.846 109.028 163.895C106.323 169.172 103.91 174.598 102.063 180.256C100.872 183.905 99.7076 187.551 99.202 191.377C98.3602 197.746 99.0358 203.911 101.695 209.791C104.859 216.784 110.114 221.886 116.387 226.125C121.661 229.69 127.448 232.142 133.394 234.207C139.192 236.221 145.204 237.557 151.295 238.281C156.476 238.897 161.712 239.214 166.94 238.957C177.838 238.422 188.57 236.703 199.14 234.037C205.386 232.461 211.538 230.555 217.658 228.523C224.175 226.359 230.509 223.751 236.885 221.233C244.252 218.325 251.158 214.565 257.728 210.168C262.749 206.808 267.431 203.02 272.02 199.089C276.748 195.039 281.167 190.677 285.412 186.157C290.091 181.175 294.952 176.382 299.82 171.597C302.882 168.588 306.048 165.667 309.493 163.069C310.642 162.202 311.358 162.169 312.442 163.279C314.328 165.21 314.896 167.145 313.96 169.784C311.789 175.905 308.376 181.277 304.409 186.325C301.751 189.708 298.919 192.963 295.767 195.902C290.6 200.718 285.343 205.425 279.82 209.846C274.705 213.941 269.455 217.838 264.01 221.47C259.757 224.307 255.422 227.013 251.027 229.634C247.11 231.971 243.146 234.231 239.127 236.363C233.789 239.196 228.423 242.003 222.871 244.422C219.822 245.75 216.809 247.16 213.77 248.514C207.983 251.091 202.08 253.354 196.087 255.42C189.455 257.707 182.72 259.61 175.888 261.124C170.713 262.271 165.484 263.182 160.183 263.708C155.034 264.219 149.902 264.775 145.242 264.559Z" fill="#DDDEDB"/>
<path fill-rule="evenodd" clip-rule="evenodd" d="M268.373 51.1297C281.155 51.0835 293.215 53.8812 304.328 60.3234C309.043 63.0577 313.186 66.4731 316.169 71.1171C320.276 77.5084 320.866 84.46 319.244 91.6996C317.594 99.0597 314.129 105.633 310.201 111.985C302.291 124.776 294.322 137.521 285.659 149.832C273.24 167.481 258.789 183.263 242.765 197.662C235.308 204.362 227.729 210.898 219.046 215.998C215.051 218.344 210.91 220.398 206.216 220.929C203.32 221.257 200.479 220.977 197.753 219.862C197.026 219.564 196.382 219.15 195.878 218.553C194.042 216.379 193.948 210.516 195.88 208.436C199.287 204.768 203.245 201.755 207.554 199.204C208.419 198.692 209.306 198.7 210.221 199.017C211.093 199.319 212.019 199.52 212.827 199.944C217.088 202.179 221.109 201.039 225.046 199.101C230.583 196.376 235.312 192.506 239.823 188.366C251.939 177.246 262.327 164.588 272.364 151.627C280.325 141.346 287.696 130.664 293.884 119.206C296.743 113.914 299.439 108.501 300.569 102.556C302.543 92.1722 298.494 84.1477 290.132 78.1701C282.051 72.3936 272.862 69.4894 263.055 68.4818C250.454 67.1875 238.193 69.2304 226.063 72.4448C218.618 74.4178 211.297 76.7802 204.196 79.7525C193.779 84.1128 184.923 90.8073 176.757 98.496C171.113 103.81 165.597 109.268 159.534 114.122C159.254 114.346 158.991 114.614 158.675 114.769C157.868 115.167 157.285 116.397 156.21 115.803C154.89 115.072 154.167 113.053 154.577 111.667C155.752 107.695 158.114 104.384 160.66 101.223C165.924 94.6882 172.442 89.5086 179.138 84.5534C190.835 75.8983 203.602 69.1475 216.95 63.4385C225.213 59.9047 233.606 56.7613 242.336 54.5626C250.885 52.4084 259.549 51.1707 268.373 51.1297Z" fill="#223D6C"/>
<path fill-rule="evenodd" clip-rule="evenodd" d="M233.756 349.29C233.757 345.489 233.743 341.687 233.775 337.886C233.779 337.395 233.414 336.545 234.19 336.48C235.003 336.41 236.08 335.88 236.646 337.049C236.938 337.651 237.169 337.683 237.771 337.28C239.806 335.92 242.166 336.12 243.976 337.828C244.691 338.503 245.002 338.692 245.808 337.854C247.436 336.161 249.546 336.052 251.663 336.792C254.021 337.615 255.563 339.272 255.928 341.786C256.119 343.097 256.063 344.449 256.066 345.783C256.079 350.869 256.026 355.955 256.103 361.039C256.123 362.301 255.724 362.59 254.545 362.548C251.866 362.451 252.338 362.747 252.318 360.35C252.293 357.319 252.311 354.289 252.31 351.258C252.31 348.638 252.324 346.018 252.305 343.398C252.29 341.442 251.195 340.218 249.526 340.23C247.93 340.242 246.851 341.401 246.838 343.335C246.802 349.088 246.831 354.842 246.824 360.595C246.822 362.825 247.021 362.395 244.816 362.558C243.257 362.674 242.975 362.1 242.996 360.666C243.08 354.862 243.028 349.057 243.037 343.252C243.04 341.802 242.443 340.766 241.022 340.344C239.796 339.979 238.793 340.409 238.046 341.413C237.522 342.117 237.567 342.963 237.567 343.784C237.565 349.486 237.531 355.189 237.591 360.89C237.604 362.107 237.371 362.622 236.024 362.551C233.368 362.412 233.776 362.86 233.76 360.232C233.737 356.585 233.754 352.937 233.756 349.29Z" fill="#223D6C"/>
<path fill-rule="evenodd" clip-rule="evenodd" d="M141.562 329.118C141.562 340.066 141.564 350.798 141.555 361.53C141.555 361.9 141.722 362.487 141.099 362.478C140.328 362.468 139.414 362.913 138.825 362.047C138.478 361.535 138.299 361.244 137.551 361.659C133.785 363.75 128.857 361.215 128.661 356.91C128.435 351.939 128.498 346.947 128.655 341.971C128.768 338.384 133.822 334.617 137.845 337.465C137.845 335.49 137.916 333.613 137.818 331.745C137.76 330.631 138.091 330.046 139.206 329.837C139.952 329.697 140.667 329.398 141.562 329.118ZM137.843 349.519C137.843 347.464 137.861 345.409 137.837 343.355C137.815 341.471 136.613 340.17 134.988 340.21C133.385 340.25 132.334 341.452 132.325 343.35C132.306 347.459 132.306 351.569 132.329 355.678C132.339 357.582 133.396 358.717 135.061 358.717C136.673 358.716 137.81 357.501 137.834 355.683C137.862 353.628 137.841 351.573 137.843 349.519Z" fill="#223D6C"/>
<path fill-rule="evenodd" clip-rule="evenodd" d="M361.75 349.374C361.75 345.524 361.734 341.674 361.769 337.825C361.774 337.348 361.382 336.498 362.244 336.461C363.024 336.428 363.997 335.94 364.613 336.937C364.856 337.329 364.957 337.985 365.68 337.342C368.252 335.056 373.545 337.051 374.603 341.243C374.753 341.836 374.849 342.46 374.851 343.07C374.87 349.178 374.852 355.286 374.884 361.394C374.889 362.259 374.636 362.565 373.75 362.539C370.392 362.442 371.074 362.931 371.05 359.903C371.007 354.309 371.037 348.714 371.038 343.119C371.038 341.642 370.326 340.662 368.906 340.314C367.608 339.996 366.589 340.514 365.918 341.66C365.537 342.31 365.605 343.05 365.604 343.765C365.598 349.309 365.612 354.852 365.592 360.396C365.584 362.753 365.987 362.414 363.475 362.555C362.034 362.636 361.682 362.159 361.717 360.767C361.814 356.972 361.751 353.172 361.75 349.374Z" fill="#223D6C"/>
<path fill-rule="evenodd" clip-rule="evenodd" d="M45.2642 354.366C45.9398 359.547 42.0197 363.288 37.3941 362.369C34.6738 361.829 32.4254 359.408 32.2685 356.405C32.1267 353.691 32.2198 350.965 32.213 348.244C32.209 346.549 32.1726 344.854 32.2192 343.161C32.3286 339.171 35.3098 336.257 39.0767 336.412C42.7476 336.564 45.4298 339.693 45.3268 343.61C45.2405 346.885 43.9763 349.445 41.1101 351.158C39.7899 351.947 38.5818 352.948 37.2079 353.617C35.7455 354.329 35.9968 355.485 36.1451 356.617C36.2934 357.752 37.0682 358.423 38.1785 358.644C39.4097 358.889 40.8058 358.55 41.0256 357.411C41.514 354.881 43.5684 355.049 45.2642 354.366ZM36.1059 350.071C37.2942 349.295 38.2692 348.677 39.2235 348.03C41.1968 346.692 41.6482 344.708 41.4339 342.51C41.3059 341.198 40.1065 340.232 38.7813 340.214C37.4669 340.196 36.1886 341.167 36.1343 342.49C36.0347 344.915 36.1059 347.347 36.1059 350.071Z" fill="#223D6C"/>
<path fill-rule="evenodd" clip-rule="evenodd" d="M157.753 354.399C158.487 359.434 154.581 363.298 149.904 362.371C147.058 361.807 144.808 359.277 144.737 356.107C144.639 351.694 144.622 347.275 144.74 342.864C144.843 339.048 147.911 336.263 151.568 336.413C155.179 336.562 157.875 339.641 157.835 343.448C157.799 346.791 156.532 349.391 153.621 351.146C152.26 351.967 151.003 352.978 149.591 353.693C148.19 354.403 148.492 355.531 148.638 356.595C148.801 357.786 149.628 358.48 150.811 358.666C152.05 358.861 153.412 358.461 153.593 357.306C153.927 355.185 155.501 355.102 156.935 354.627C157.174 354.547 157.42 354.491 157.753 354.399ZM148.576 349.891C152.763 347.992 154.116 346.178 153.954 342.886C153.88 341.382 152.789 340.263 151.35 340.216C149.915 340.169 148.649 341.224 148.598 342.717C148.517 345.058 148.576 347.404 148.576 349.891Z" fill="#223D6C"/>
<path fill-rule="evenodd" clip-rule="evenodd" d="M217.588 349.549C217.587 347.445 217.556 345.34 217.593 343.236C217.663 339.216 220.419 336.373 224.167 336.41C227.809 336.445 230.57 339.34 230.6 343.236C230.633 347.495 230.65 351.757 230.592 356.016C230.55 359.061 228.531 361.639 225.844 362.292C222.767 363.039 219.902 361.819 218.346 359.124C217.73 358.058 217.603 356.896 217.595 355.708C217.581 353.656 217.591 351.602 217.588 349.549ZM226.867 349.568C226.867 347.515 226.9 345.461 226.858 343.408C226.818 341.462 225.675 340.207 224.049 340.217C222.416 340.226 221.36 341.469 221.351 343.464C221.334 347.468 221.333 351.472 221.347 355.475C221.354 357.528 222.334 358.685 224.028 358.713C225.753 358.742 226.833 357.513 226.862 355.419C226.889 353.469 226.868 351.518 226.867 349.568Z" fill="#223D6C"/>
<path fill-rule="evenodd" clip-rule="evenodd" d="M288.435 349.508C288.435 353.361 288.45 357.214 288.417 361.067C288.413 361.555 288.775 362.372 287.952 362.465C287.202 362.549 286.298 362.893 285.676 362.044C285.401 361.669 285.294 361.035 284.564 361.615C281.834 363.784 276.836 361.952 275.684 357.817C275.494 357.135 275.433 356.397 275.431 355.685C275.411 349.725 275.454 343.765 275.388 337.806C275.375 336.611 275.74 336.341 276.867 336.378C279.152 336.454 279.155 336.39 279.156 338.633C279.157 343.874 279.155 349.114 279.159 354.355C279.16 354.971 279.133 355.595 279.214 356.201C279.435 357.843 280.613 358.818 282.165 358.704C283.627 358.597 284.658 357.523 284.666 355.913C284.697 349.902 284.724 343.89 284.653 337.88C284.639 336.618 285.03 336.334 286.204 336.379C288.415 336.463 288.417 336.399 288.418 338.564C288.418 342.212 288.418 345.86 288.418 349.508C288.424 349.508 288.429 349.508 288.435 349.508Z" fill="#223D6C"/>
<path fill-rule="evenodd" clip-rule="evenodd" d="M48.4671 349.521C48.4668 345.615 48.4554 341.71 48.4819 337.805C48.485 337.349 48.148 336.575 48.8162 336.488C49.6015 336.387 50.541 335.997 51.2341 336.875C51.4863 337.195 51.4629 337.87 52.3197 337.388C56.4368 335.069 61.2791 337.829 61.4456 342.58C61.5446 345.403 61.4731 348.232 61.4755 351.058C61.4786 354.398 61.4302 357.739 61.5073 361.078C61.5335 362.219 61.2353 362.719 60.06 362.534C59.7591 362.486 59.4381 362.484 59.1375 362.531C57.9985 362.711 57.6621 362.29 57.6754 361.112C57.741 355.306 57.705 349.499 57.7065 343.693C57.7068 342.973 57.7469 342.246 57.3387 341.6C56.6668 340.538 55.7092 340.028 54.4626 340.282C52.998 340.58 52.2849 341.613 52.2164 343.028C52.1372 344.669 52.1921 346.316 52.1914 347.96C52.1899 352.328 52.1541 356.696 52.214 361.063C52.2291 362.164 52.0169 362.734 50.7981 362.535C50.3976 362.47 49.973 362.484 49.5676 362.53C48.678 362.632 48.4409 362.251 48.4496 361.39C48.49 357.434 48.4675 353.477 48.4671 349.521Z" fill="#223D6C"/>
<path fill-rule="evenodd" clip-rule="evenodd" d="M345.635 349.382C345.634 347.175 345.591 344.968 345.644 342.761C345.731 339.186 348.528 336.438 352.036 336.409C355.589 336.379 358.54 339.183 358.592 342.785C358.656 347.249 358.656 351.716 358.595 356.181C358.545 359.786 355.592 362.563 352.015 362.508C348.447 362.452 345.72 359.763 345.645 356.157C345.597 353.9 345.636 351.641 345.635 349.382ZM354.881 349.476C354.881 347.421 354.914 345.366 354.871 343.312C354.833 341.463 353.705 340.236 352.124 340.215C350.472 340.193 349.358 341.441 349.351 343.394C349.336 347.451 349.339 351.509 349.355 355.567C349.363 357.562 350.418 358.731 352.131 358.712C353.764 358.692 354.837 357.528 354.871 355.639C354.908 353.585 354.879 351.53 354.881 349.476Z" fill="#223D6C"/>
<path fill-rule="evenodd" clip-rule="evenodd" d="M319.765 351.939C319.765 354.966 319.782 357.994 319.749 361.021C319.743 361.518 320.093 362.338 319.326 362.445C318.539 362.555 317.566 362.936 316.939 361.985C316.652 361.55 316.447 361.04 315.789 361.58C312.965 363.892 308.003 361.704 307.03 357.895C306.281 354.963 307.004 352.372 309.41 350.44C310.966 349.19 312.681 348.141 314.267 346.924C316.051 345.555 316.512 343.946 315.795 342.052C315.025 340.019 312.353 339.5 311.123 341.26C310.524 342.116 310.162 341.805 309.548 341.5C307.244 340.358 307.127 339.091 309.357 337.595C311.511 336.148 313.882 335.93 316.214 337.151C318.412 338.303 319.702 340.165 319.746 342.703C319.799 345.781 319.759 348.86 319.759 351.939C319.76 351.939 319.763 351.939 319.765 351.939ZM316.03 349.88C314.893 351.198 313.577 351.969 312.341 352.842C311.782 353.237 311.331 353.711 310.997 354.297C310.328 355.469 310.244 356.643 311.136 357.737C311.898 358.672 312.934 358.934 314.053 358.594C315.404 358.183 315.994 357.131 316.021 355.78C316.057 353.891 316.03 352.001 316.03 349.88Z" fill="#223D6C"/>
<path fill-rule="evenodd" clip-rule="evenodd" d="M189.382 351.829C189.383 354.909 189.399 357.989 189.367 361.068C189.362 361.559 189.712 362.38 188.905 362.457C188.119 362.533 187.134 362.969 186.538 361.963C186.259 361.492 186.094 361.16 185.384 361.565C181.505 363.781 176.754 361.182 176.393 356.686C176.185 354.093 177.067 351.93 179.135 350.337C180.678 349.149 182.284 348.04 183.892 346.94C185.456 345.871 185.829 344.369 185.555 342.625C185.373 341.467 184.732 340.635 183.562 340.33C182.428 340.035 181.45 340.274 180.678 341.241C179.454 342.772 178.708 340.982 177.762 340.738C176.69 340.462 177.285 339.694 177.59 339.163C178.877 336.922 181.008 336.334 183.376 336.439C185.945 336.554 188.199 338.43 189.077 340.933C189.482 342.087 189.366 343.265 189.376 344.438C189.395 346.902 189.382 349.365 189.382 351.829ZM185.597 350.152C184.576 350.916 183.76 351.529 182.942 352.138C182.084 352.778 181.119 353.298 180.586 354.293C179.985 355.415 179.862 356.543 180.65 357.618C181.404 358.647 182.475 358.93 183.659 358.594C184.956 358.226 185.56 357.24 185.587 355.939C185.626 354.059 185.597 352.178 185.597 350.152Z" fill="#223D6C"/>
<path fill-rule="evenodd" clip-rule="evenodd" d="M100.327 351.957C100.327 354.989 100.342 358.02 100.311 361.051C100.306 361.549 100.647 362.368 99.86 362.459C99.0729 362.55 98.0757 362.953 97.4958 361.944C97.201 361.431 96.9506 361.101 96.3423 361.608C93.3894 364.071 87.4356 361.422 87.3332 356.176C87.2873 353.826 88.1691 351.846 90.0379 350.401C91.619 349.177 93.2535 348.018 94.912 346.901C96.5828 345.775 96.7681 344.158 96.4894 342.408C96.3253 341.377 95.6541 340.653 94.624 340.353C93.6244 340.062 92.4962 340.07 91.9523 340.963C91.2521 342.114 90.6419 341.783 89.7727 341.336C87.8901 340.368 87.7153 339.575 89.35 338.104C91.3591 336.295 93.7388 335.905 96.2316 336.907C98.5996 337.859 100.146 339.65 100.263 342.249C100.409 345.479 100.298 348.72 100.298 351.957C100.308 351.958 100.317 351.957 100.327 351.957ZM96.5541 349.963C95.4108 351.209 94.2469 351.941 93.1166 352.713C92.4222 353.187 91.8555 353.755 91.4667 354.504C90.8602 355.672 90.9139 356.799 91.7729 357.802C92.5557 358.717 93.6157 358.946 94.7199 358.566C95.9705 358.135 96.5671 357.177 96.5575 355.838C96.5446 353.99 96.5541 352.142 96.5541 349.963Z" fill="#223D6C"/>
<path fill-rule="evenodd" clip-rule="evenodd" d="M21.86 354.416C22.731 359.882 18.3675 363.198 14.2162 362.393C11.428 361.852 9.03257 359.389 9.00328 356.518C8.93051 349.375 8.91849 342.232 9.00944 335.09C9.05292 331.673 12.282 328.895 15.7307 329.034C19.282 329.177 22.0875 332.227 21.9762 335.752C21.9531 336.481 21.7631 336.784 21.0133 336.709C20.5045 336.658 19.9816 336.656 19.4738 336.71C18.584 336.806 18.2241 336.56 18.1967 335.557C18.1511 333.884 16.993 332.869 15.4362 332.88C13.8884 332.892 12.759 333.935 12.7479 335.645C12.7032 342.428 12.706 349.211 12.7519 355.994C12.7627 357.571 13.775 358.566 15.1859 358.699C16.6612 358.838 17.9081 357.988 18.1659 356.424C18.2938 355.646 18.6638 355.385 19.2854 355.2C20.1182 354.953 20.9476 354.695 21.86 354.416Z" fill="#223D6C"/>
<path fill-rule="evenodd" clip-rule="evenodd" d="M214.277 354.382C215.158 359.512 211.06 363.228 206.631 362.393C203.847 361.869 201.422 359.409 201.387 356.54C201.303 349.4 201.294 342.258 201.384 335.118C201.427 331.705 204.664 328.903 208.092 329.034C211.625 329.17 214.492 332.223 214.406 335.706C214.39 336.389 214.271 336.801 213.478 336.709C213.124 336.668 212.757 336.672 212.401 336.707C211.269 336.816 210.505 336.737 210.522 335.185C210.538 333.755 209.212 332.835 207.758 332.881C206.331 332.926 205.244 333.902 205.166 335.409C205.075 337.152 205.124 338.901 205.123 340.648C205.12 345.682 205.126 350.717 205.121 355.752C205.12 356.993 205.581 357.992 206.743 358.49C207.747 358.921 208.762 358.814 209.631 358.072C209.862 357.875 210.203 357.63 210.22 357.389C210.401 354.804 212.63 355.091 214.277 354.382Z" fill="#223D6C"/>
<path fill-rule="evenodd" clip-rule="evenodd" d="M103.511 355.564C103.304 354.42 103.729 353.966 105.01 354.528C105.378 354.689 105.803 354.754 106.208 354.792C106.975 354.863 107.321 355.132 107.368 356.016C107.474 357.966 108.924 359.039 110.684 358.645C112.304 358.283 113.134 356.683 112.632 354.902C112.25 353.544 111.299 352.616 110.245 351.782C108.917 350.732 107.533 349.752 106.219 348.687C102.086 345.338 102.76 338.757 107.477 336.646C109.833 335.592 112.103 335.959 114.125 337.55C116.173 339.161 116.735 341.388 116.572 343.873C116.562 344.021 116.505 344.284 116.446 344.291C115.401 344.414 114.472 343.868 113.464 343.749C112.85 343.676 112.825 343.223 112.804 342.727C112.746 341.353 112.11 340.394 110.73 340.022C109.039 339.565 107.469 340.658 107.355 342.408C107.251 344.007 107.898 345.337 109.077 346.356C110.51 347.596 112.017 348.752 113.504 349.929C116.552 352.342 117.486 356.478 115.63 359.395C113.994 361.966 111.113 363.068 108.135 362.263C105.427 361.531 103.548 358.868 103.511 355.564Z" fill="#223D6C"/>
<path fill-rule="evenodd" clip-rule="evenodd" d="M304.317 354.376C304.422 357.038 304.351 359.483 302.118 361.23C298.861 363.779 294.2 362.137 293.263 358.111C292.969 356.849 292.98 355.566 292.982 354.281C292.989 350.02 292.974 345.759 292.995 341.498C292.999 340.703 293.006 340.01 291.901 340.194C290.774 340.381 290.443 339.821 290.562 338.798C290.604 338.444 290.602 338.077 290.564 337.721C290.465 336.792 290.695 336.207 291.793 336.405C292.722 336.571 293.073 336.216 293.004 335.244C292.921 334.069 293.063 332.877 292.962 331.705C292.866 330.589 293.221 329.999 294.352 329.797C295.098 329.664 295.812 329.353 296.724 329.062C296.724 331.207 296.761 333.244 296.707 335.28C296.684 336.148 296.951 336.465 297.837 336.42C299.117 336.356 300.405 336.446 301.686 336.392C302.493 336.358 302.72 336.646 302.746 337.445C302.837 340.195 302.87 340.193 300.283 340.191C296.724 340.187 296.724 340.187 296.724 343.82C296.724 347.567 296.723 351.315 296.726 355.063C296.726 355.524 296.703 355.993 296.772 356.446C296.944 357.563 297.292 358.641 298.652 358.692C300.049 358.745 300.509 357.694 300.561 356.551C300.6 355.715 300.937 355.375 301.674 355.187C302.517 354.971 303.339 354.681 304.317 354.376Z" fill="#223D6C"/>
<path fill-rule="evenodd" clip-rule="evenodd" d="M322.905 349.487C322.905 347.383 322.885 345.279 322.909 343.176C322.953 339.414 325.708 336.501 329.276 336.412C332.887 336.321 335.741 339.067 336.013 342.815C336.085 343.801 335.852 344.273 334.786 344.124C334.333 344.061 333.857 344.065 333.403 344.123C332.468 344.243 332.183 343.891 332.151 342.94C332.094 341.291 330.916 340.214 329.423 340.225C327.916 340.235 326.796 341.319 326.778 343.018C326.731 347.379 326.734 351.741 326.793 356.102C326.814 357.678 327.816 358.616 329.275 358.707C330.69 358.795 331.923 357.946 332.118 356.471C332.326 354.888 333.679 355.291 334.531 354.827C335.842 354.112 336.122 354.631 336.034 355.949C335.774 359.839 332.977 362.613 329.303 362.514C325.599 362.414 322.94 359.566 322.91 355.645C322.893 353.593 322.906 351.54 322.905 349.487Z" fill="#223D6C"/>
<path fill-rule="evenodd" clip-rule="evenodd" d="M77.636 354.399C78.1216 359.751 74.6572 363.238 69.7896 362.355C67.2095 361.886 64.8425 359.517 64.7669 356.839C64.6282 351.917 64.5931 346.984 64.7848 342.065C64.9159 338.7 68.4148 336.088 71.8261 336.424C75.2618 336.763 78.0035 339.989 77.7451 343.326C77.6992 343.92 77.5311 344.152 76.9385 344.116C76.3761 344.083 75.8039 344.059 75.2467 344.123C74.2749 344.235 73.9554 343.914 73.9215 342.883C73.8688 341.289 72.568 340.176 71.1099 340.213C69.6114 340.252 68.5104 341.382 68.4974 343.057C68.4638 347.368 68.4755 351.68 68.4943 355.991C68.5005 357.391 69.1905 358.338 70.5876 358.641C71.9664 358.939 73.3638 358.434 73.5873 357.16C73.912 355.309 75.1607 355.137 76.4655 354.766C76.8556 354.656 77.2388 354.524 77.636 354.399Z" fill="#223D6C"/>
<path fill-rule="evenodd" clip-rule="evenodd" d="M173.586 329.113C173.586 340.055 173.582 350.78 173.596 361.505C173.597 362.188 173.448 362.49 172.673 362.543C169.728 362.745 169.731 362.778 169.731 359.825C169.732 350.637 169.78 341.448 169.685 332.262C169.668 330.661 170.138 329.908 171.659 329.671C172.255 329.578 172.828 329.338 173.586 329.113Z" fill="#223D6C"/>
<path fill-rule="evenodd" clip-rule="evenodd" d="M28.9597 349.867C28.9579 353.615 28.9055 357.364 28.9881 361.111C29.0143 362.309 28.6286 362.686 27.5044 362.533C27.0506 362.472 26.5791 362.493 26.12 362.532C25.3631 362.595 25.1472 362.234 25.1488 361.532C25.1645 354.087 25.1836 346.642 25.1426 339.198C25.1361 338.039 25.964 338.062 26.6362 337.82C28.964 336.981 28.9643 336.991 28.9625 339.393C28.9594 342.884 28.9616 346.376 28.9597 349.867Z" fill="#223D6C"/>
<path fill-rule="evenodd" clip-rule="evenodd" d="M342.287 349.844C342.287 353.587 342.245 357.331 342.313 361.072C342.333 362.173 342.122 362.741 340.907 362.538C340.558 362.48 340.188 362.497 339.833 362.535C338.888 362.634 338.486 362.364 338.493 361.282C338.545 354.002 338.537 346.721 338.504 339.441C338.5 338.576 338.721 338.102 339.599 337.927C340.145 337.819 340.671 337.583 341.186 337.361C342.023 337.001 342.319 337.172 342.307 338.154C342.257 342.05 342.286 345.947 342.287 349.844Z" fill="#223D6C"/>
<path fill-rule="evenodd" clip-rule="evenodd" d="M83.9877 349.871C83.9877 353.614 83.9399 357.358 84.0157 361.1C84.0392 362.267 83.6988 362.704 82.5503 362.533C82.1488 362.474 81.7286 362.495 81.3216 362.53C80.5622 362.597 80.2196 362.362 80.2227 361.514C80.2504 354.079 80.2483 346.643 80.2292 339.208C80.2276 338.532 80.4385 338.162 81.1017 338.003C81.5966 337.883 82.0868 337.711 82.5503 337.499C83.6094 337.014 84.0478 337.143 84.0179 338.488C83.9331 342.28 83.988 346.076 83.9877 349.871Z" fill="#223D6C"/>
<path fill-rule="evenodd" clip-rule="evenodd" d="M83.9779 331.551C83.8827 332.581 83.6101 333.631 82.243 333.77C81.17 333.88 80.1793 332.631 80.2564 331.314C80.3267 330.117 80.8919 329.229 82.144 329.062C83.1581 328.927 83.9924 330.08 83.9779 331.551Z" fill="#223D6C"/>
<path fill-rule="evenodd" clip-rule="evenodd" d="M25.1973 331.443C25.1782 330.22 26.1072 329.057 27.1142 329.042C28.0891 329.028 28.9102 330.042 28.9491 331.31C28.9907 332.672 28.222 333.73 27.1678 333.761C26.1238 333.792 25.217 332.725 25.1973 331.443Z" fill="#223D6C"/>
<path fill-rule="evenodd" clip-rule="evenodd" d="M342.281 331.384C342.289 332.741 341.468 333.791 340.421 333.762C339.349 333.732 338.521 332.682 338.536 331.37C338.55 330.122 339.502 328.996 340.506 329.038C341.464 329.078 342.273 330.147 342.281 331.384Z" fill="#223D6C"/>
<path fill-rule="evenodd" clip-rule="evenodd" d="M355.287 331.353C353.819 332.808 352.759 334.784 350.217 333.86C352.028 330.719 351.317 331.103 355.287 331.353Z" fill="#223D6C"/>
<path fill-rule="evenodd" clip-rule="evenodd" d="M263 349.504C262.997 347.399 262.975 345.293 263.005 343.188C263.029 341.446 264.126 340.248 265.655 340.209C267.187 340.171 268.424 341.321 268.448 343.063C268.508 347.375 268.507 351.689 268.442 356.001C268.416 357.687 267.259 358.717 265.706 358.713C264.1 358.708 263.039 357.606 263.01 355.819C262.976 353.714 263.002 351.609 263 349.504Z" fill="#F6F6F6"/>
<path fill-rule="evenodd" clip-rule="evenodd" d="M137.842 349.519C137.841 351.573 137.862 353.628 137.834 355.683C137.81 357.501 136.673 358.716 135.062 358.716C133.396 358.716 132.339 357.582 132.329 355.678C132.306 351.569 132.307 347.459 132.326 343.35C132.335 341.452 133.386 340.25 134.988 340.21C136.613 340.169 137.815 341.471 137.837 343.354C137.861 345.409 137.842 347.464 137.842 349.519Z" fill="#F6F6F6"/>
<path fill-rule="evenodd" clip-rule="evenodd" d="M36.106 350.071C36.106 347.347 36.0347 344.915 36.1343 342.49C36.1889 341.167 37.4672 340.196 38.7813 340.214C40.1062 340.232 41.3059 341.197 41.4339 342.51C41.6482 344.708 41.1968 346.692 39.2235 348.03C38.2692 348.678 37.2943 349.295 36.106 350.071Z" fill="#F6F6F6"/>
<path fill-rule="evenodd" clip-rule="evenodd" d="M148.577 349.891C148.577 347.404 148.518 345.058 148.598 342.718C148.649 341.223 149.915 340.169 151.35 340.216C152.789 340.263 153.88 341.382 153.954 342.886C154.116 346.178 152.763 347.992 148.577 349.891Z" fill="#F6F6F6"/>
<path fill-rule="evenodd" clip-rule="evenodd" d="M226.867 349.568C226.867 351.519 226.888 353.469 226.862 355.42C226.832 357.513 225.753 358.742 224.028 358.714C222.334 358.685 221.354 357.529 221.347 355.476C221.333 351.472 221.334 347.468 221.351 343.465C221.359 341.469 222.416 340.227 224.049 340.217C225.675 340.208 226.818 341.462 226.858 343.409C226.9 345.461 226.867 347.515 226.867 349.568Z" fill="#F6F6F6"/>
<path fill-rule="evenodd" clip-rule="evenodd" d="M354.88 349.475C354.879 351.53 354.908 353.585 354.871 355.639C354.837 357.528 353.763 358.692 352.131 358.711C350.417 358.731 349.363 357.562 349.355 355.567C349.338 351.509 349.335 347.451 349.35 343.394C349.357 341.44 350.472 340.193 352.124 340.215C353.704 340.236 354.833 341.463 354.871 343.312C354.914 345.366 354.881 347.421 354.88 349.475Z" fill="#F6F6F6"/>
<path fill-rule="evenodd" clip-rule="evenodd" d="M316.03 349.88C316.03 352.001 316.057 353.891 316.021 355.781C315.994 357.131 315.404 358.184 314.053 358.595C312.934 358.935 311.898 358.672 311.136 357.738C310.244 356.643 310.328 355.47 310.997 354.298C311.331 353.712 311.782 353.238 312.341 352.843C313.578 351.969 314.893 351.198 316.03 349.88Z" fill="#F6F6F6"/>
<path fill-rule="evenodd" clip-rule="evenodd" d="M185.597 350.152C185.597 352.178 185.626 354.059 185.587 355.939C185.561 357.241 184.956 358.226 183.659 358.594C182.476 358.93 181.404 358.647 180.65 357.618C179.862 356.543 179.985 355.415 180.586 354.293C181.119 353.298 182.084 352.778 182.942 352.138C183.76 351.528 184.576 350.916 185.597 350.152Z" fill="#F6F6F6"/>
<path fill-rule="evenodd" clip-rule="evenodd" d="M96.5541 349.963C96.5541 352.141 96.5442 353.99 96.5575 355.838C96.567 357.177 95.9704 358.135 94.7198 358.566C93.6157 358.946 92.5557 358.717 91.7728 357.802C90.9138 356.799 90.8605 355.672 91.4667 354.504C91.8552 353.755 92.4222 353.187 93.1165 352.713C94.2469 351.941 95.4111 351.209 96.5541 349.963Z" fill="#F6F6F6"/>
</svg>
