<svg width="607" height="398" viewBox="0 0 607 398" fill="none" xmlns="http://www.w3.org/2000/svg">
<path fill-rule="evenodd" clip-rule="evenodd" d="M502.984 307.437C494.342 307.424 485.707 307.105 477.079 306.7C466.058 306.182 455.038 305.596 444.028 304.872C432.502 304.115 420.978 303.295 409.476 302.195C399.117 301.204 388.744 300.35 378.387 299.333C366.946 298.209 355.516 296.96 344.08 295.779C332.074 294.539 320.063 293.353 308.061 292.072C296.986 290.891 285.893 289.934 274.791 289.07C253.608 287.419 232.399 286.5 211.15 287.247C198.766 287.682 186.43 288.74 174.164 290.55C155.696 293.275 137.695 297.833 120.196 304.339C114.743 306.367 109.37 308.601 104.066 310.996C103.752 311.137 103.456 311.431 103.064 311.186C103.064 310.77 103.064 310.353 103.064 309.937C113.218 303.51 123.731 297.766 134.77 292.986C145.567 288.31 156.658 284.506 168.041 281.569C183.175 277.665 198.553 275.258 214.128 273.927C232.369 272.369 250.619 272.403 268.877 273.156C282.395 273.715 295.885 274.735 309.346 276.109C321.196 277.317 333.055 278.434 344.9 279.688C358.555 281.133 372.202 282.646 385.878 283.888C405.421 285.662 424.986 287.04 444.621 287.061C447.822 287.065 450.531 288.57 453.392 289.571C464.029 293.29 474.621 297.14 485.225 300.952C490.553 302.867 495.871 304.812 501.2 306.723C501.769 306.928 502.319 307.312 502.984 307.125C502.984 307.229 502.984 307.333 502.984 307.437Z" fill="white"/>
<path fill-rule="evenodd" clip-rule="evenodd" d="M248.929 258.037C241.404 258.463 233.682 257.466 226.085 255.804C218.485 254.142 211.098 251.746 204.092 248.203C200.382 246.326 196.655 244.458 193.319 242.032C188.138 238.263 183.612 233.796 180.382 228.12C176.503 221.304 175.103 213.966 175.593 206.255C175.942 200.755 177.231 195.404 179.057 190.2C180.863 185.053 183.033 180.053 185.595 175.243C187.805 171.093 190.2 167.039 192.528 162.953C194.859 158.864 197.157 154.747 199.447 150.63C201.338 147.231 203.35 143.898 205.315 140.541C207.037 137.601 208.67 134.599 210.475 131.709C213.514 126.841 216.506 121.944 219.639 117.131C222.695 112.437 225.693 107.702 228.834 103.064C235.084 93.8288 241.587 84.7711 248.662 76.1511C253.857 69.8207 259.304 63.6999 264.844 57.6602C272.197 49.643 279.848 41.9206 287.642 34.3444C294.141 28.0265 300.797 21.8682 308.006 16.3305C311.465 13.6731 314.927 11.0227 318.608 8.69891C324.355 5.07139 330.295 1.8329 337.072 0.457529C341.515 -0.443833 345.853 0.0647554 350.117 1.301C353.456 2.26859 354.967 4.92311 355.455 8.1391C355.687 9.659 355.73 11.2397 355.886 12.775C356.189 15.7461 354.833 17.9204 352.961 19.8522C348.292 24.6689 343.234 29.0354 337.596 32.7095C336.095 33.6884 334.628 33.9749 332.889 33.3731C330.243 32.4571 327.554 31.6499 324.857 30.8902C322.207 30.1433 319.574 30.6619 317.067 31.4987C309.339 34.0782 303.133 39.0632 297 44.2244C290.69 49.5338 285.03 55.4831 279.51 61.5539C272.432 69.3384 265.775 77.4869 259.392 85.8644C253.963 92.9875 248.472 100.064 243.335 107.398C238.932 113.684 234.649 120.054 230.496 126.515C226.564 132.633 222.878 138.884 219.289 145.204C216.03 150.943 212.997 156.803 210.295 162.805C207.512 168.988 204.939 175.343 203.821 182.06C202.384 190.689 203.406 199.025 208.279 206.601C211.3 211.297 215.264 214.993 219.771 218.243C222.907 220.504 226.267 222.361 229.717 223.973C233.641 225.807 237.793 227.16 241.966 228.417C246.748 229.858 251.66 230.575 256.546 231.447C257.709 231.654 258.925 231.753 260.097 231.776C263.836 231.849 267.568 232.431 271.306 232.115C276.405 231.685 281.51 231.406 286.596 230.677C296.315 229.283 305.837 227.067 315.205 224.226C321.252 222.392 327.264 220.412 333.153 218.066C339.369 215.591 345.612 213.186 351.65 210.302C355.822 208.31 359.731 205.84 363.583 203.296C369.996 199.063 375.944 194.243 381.623 189.061C385.224 185.775 388.717 182.378 392.03 178.825C397.216 173.264 402.651 167.958 408.071 162.64C410.874 159.889 413.811 157.243 417.037 154.947C418.164 154.145 418.72 154.51 419.634 155.345C422.574 158.033 421.79 160.973 420.506 164.009C417.934 170.088 414.251 175.462 410.093 180.551C407.092 184.224 403.817 187.642 400.34 190.84C395.878 194.943 391.256 198.869 386.511 202.657C382.578 205.798 378.625 208.905 374.481 211.757C368.428 215.922 362.295 219.979 355.912 223.621C348.444 227.881 340.863 231.933 333.095 235.641C328.055 238.047 323.014 240.455 317.875 242.625C313.632 244.415 309.336 246.088 304.994 247.66C297.91 250.225 290.721 252.384 283.406 254.104C277.467 255.5 271.467 256.577 265.373 257.204C259.997 257.755 254.637 258.218 248.929 258.037Z" fill="white"/>
<path fill-rule="evenodd" clip-rule="evenodd" d="M377.838 41.7834C384.733 41.7376 394.018 43.3179 402.894 46.9329C409.781 49.7378 416.244 53.2725 421.173 59.0447C427.404 66.3426 428.556 74.7485 426.308 83.803C424.406 91.4695 420.604 98.2706 416.467 104.908C409.208 116.552 401.944 128.187 394.128 139.479C381.122 158.27 365.963 175.104 348.957 190.328C341.897 196.648 334.74 202.833 326.659 207.84C322.095 210.667 317.377 213.177 311.926 213.852C309.25 214.184 306.634 213.829 304.071 213.04C301.627 212.287 300.601 210.488 300.227 208.069C299.645 204.308 300.608 201.289 303.724 198.884C306.728 196.567 309.588 194.074 312.843 192.089C314.081 191.334 315.26 191.282 316.548 191.801C317.223 192.071 317.956 192.219 318.594 192.553C322.886 194.806 326.977 193.748 330.973 191.776C337.922 188.345 343.665 183.287 349.15 177.944C362.192 165.238 373.578 151.112 384.367 136.488C390.36 128.365 395.864 119.92 400.691 111.05C403.478 105.93 406.042 100.676 407.369 94.9704C409.432 86.0964 407.169 78.3973 400.535 72.0761C395.174 66.9666 388.635 63.988 381.676 61.8013C369.278 57.9047 356.719 58.3662 344.161 60.6866C330.422 63.2253 317.063 67.119 304.52 73.3761C296.129 77.5617 288.885 83.4139 282.078 89.8243C276.324 95.2433 270.708 100.818 264.508 105.746C264.264 105.94 264.038 106.177 263.761 106.305C262.942 106.685 262.225 108.08 261.291 107.235C260.2 106.248 259.022 105.068 259.633 103.19C261.266 98.171 264.321 94.0366 267.813 90.237C275.4 81.984 284.353 75.3846 293.755 69.3737C305.888 61.6159 318.864 55.5292 332.294 50.4255C346.742 44.934 360.354 41.8251 377.838 41.7834Z" fill="white"/>
<path fill-rule="evenodd" clip-rule="evenodd" d="M414.672 397.637C414.602 396.797 414.475 395.958 414.475 395.119C414.468 378.711 414.47 362.304 414.503 345.897C414.504 345.082 413.911 343.726 415.226 343.603C416.516 343.482 418.16 342.745 419.131 344.419C419.576 345.184 419.8 345.836 420.945 345.037C427.183 340.68 435.835 346.407 436.022 353.591C436.222 361.237 436.245 368.896 436.035 376.541C435.824 384.225 427.345 389.103 420.724 385.137C420.724 388.504 420.634 391.67 420.767 394.827C420.822 396.183 420.395 397.033 419.268 397.636C417.736 397.637 416.204 397.637 414.672 397.637ZM420.728 365.14C420.733 365.14 420.737 365.14 420.742 365.14C420.742 368.625 420.697 372.111 420.756 375.595C420.805 378.571 422.524 380.399 425.161 380.443C427.791 380.487 429.709 378.695 429.749 375.737C429.847 368.683 429.849 361.625 429.754 354.571C429.716 351.666 427.715 349.759 425.178 349.803C422.621 349.847 420.784 351.811 420.741 354.683C420.69 358.168 420.728 361.654 420.728 365.14Z" fill="white"/>
<path fill-rule="evenodd" clip-rule="evenodd" d="M390.927 347.241C393.954 343.339 397.927 342.604 402.303 344.268C406.802 345.978 409.184 349.458 409.217 354.291C409.285 364.496 409.209 374.702 409.259 384.908C409.266 386.365 408.802 386.941 407.358 386.768C406.771 386.697 406.16 386.695 405.575 386.773C403.621 387.036 402.948 386.364 402.973 384.268C403.091 374.404 403.05 364.538 403.013 354.671C403.001 351.819 401.089 349.836 398.534 349.806C396.055 349.776 394.254 351.547 393.993 354.345C393.898 355.357 393.926 356.384 393.926 357.403C393.931 366.078 393.97 374.753 393.914 383.428C393.906 384.505 394.696 386.196 393.265 386.588C391.691 387.019 389.865 386.871 388.222 386.574C387.207 386.39 387.678 385.108 387.675 384.323C387.65 374.968 387.668 365.613 387.665 356.257C387.665 355.323 387.744 354.357 387.543 353.462C387.034 351.207 385.533 349.885 383.227 349.844C380.933 349.803 379.329 350.98 378.814 353.288C378.596 354.27 378.593 355.313 378.592 356.328C378.576 365.684 378.522 375.04 378.629 384.394C378.651 386.36 378.046 386.846 376.175 386.798C372.295 386.7 372.294 386.8 372.295 382.822C372.296 377.549 372.295 372.276 372.295 367.003C372.297 359.944 372.278 352.886 372.329 345.827C372.334 345.032 371.7 343.629 373.124 343.578C374.413 343.533 376.019 342.733 377.039 344.416C377.349 344.929 377.354 345.911 378.634 345.194C383.409 342.526 386.119 342.976 390.238 346.783C390.421 346.952 390.656 347.064 390.927 347.241Z" fill="white"/>
<path fill-rule="evenodd" clip-rule="evenodd" d="M213.467 345.294C213.467 341.855 213.601 338.705 213.416 335.573C213.308 333.736 214.031 333.101 215.662 332.633C219.647 331.488 219.623 331.408 219.623 335.655C219.623 351.805 219.637 367.952 219.592 384.102C219.59 384.975 220.27 386.449 218.821 386.641C217.539 386.811 215.863 387.477 214.942 385.745C214.417 384.756 213.937 384.817 212.975 385.34C206.706 388.752 198.609 384.611 198.26 377.452C197.861 369.229 197.931 360.962 198.26 352.732C198.518 346.317 207.241 340.653 213.467 345.294ZM213.465 365.143C213.465 361.825 213.488 358.508 213.459 355.192C213.43 351.982 211.61 349.856 208.923 349.814C206.139 349.771 204.347 351.768 204.33 355.072C204.298 361.79 204.302 368.509 204.328 375.227C204.34 378.518 206.124 380.502 208.929 380.458C211.652 380.415 213.432 378.335 213.459 375.093C213.485 371.776 213.464 368.459 213.465 365.143Z" fill="white"/>
<path fill-rule="evenodd" clip-rule="evenodd" d="M246.383 373.292C247.094 379.359 244.549 384.139 239.664 386.06C235.153 387.835 229.839 386.272 226.919 382.264C225.472 380.278 224.834 377.997 224.826 375.562C224.802 368.672 224.755 361.781 224.832 354.891C224.907 348.209 229.746 343.342 235.996 343.496C242.195 343.649 246.709 348.846 246.569 355.467C246.455 360.815 244.375 364.965 239.762 367.799C237.445 369.222 235.279 370.918 232.878 372.171C230.58 373.37 231.108 375.24 231.361 376.998C231.627 378.851 232.923 379.981 234.768 380.327C236.81 380.711 239.138 380.12 239.457 378.232C240.189 373.91 243.673 374.386 246.383 373.292ZM231.243 359.067C231.23 359.067 231.217 359.067 231.204 359.067C231.204 360.843 231.19 362.619 231.211 364.396C231.219 365.066 231.119 365.787 232.297 365.443C237.055 364.054 240.38 359.337 240.123 354.219C239.997 351.725 238.186 349.881 235.802 349.821C233.413 349.759 231.442 351.5 231.265 353.995C231.147 355.678 231.243 357.376 231.243 359.067Z" fill="white"/>
<path fill-rule="evenodd" clip-rule="evenodd" d="M345.519 365.225C345.519 361.74 345.462 358.253 345.531 354.769C345.664 348.105 350.233 343.431 356.459 343.504C362.481 343.575 367.044 348.397 367.084 354.84C367.127 361.726 367.133 368.613 367.072 375.498C367.014 382.008 362.556 386.641 356.382 386.746C350.325 386.848 345.719 382.194 345.549 375.681C345.458 372.198 345.533 368.71 345.533 365.225C345.528 365.225 345.524 365.225 345.519 365.225ZM351.748 365.102C351.748 368.502 351.714 371.902 351.757 375.3C351.799 378.529 353.416 380.37 356.164 380.444C358.843 380.515 360.808 378.608 360.851 375.516C360.945 368.634 360.941 361.747 360.862 354.864C360.826 351.801 358.859 349.793 356.257 349.81C353.589 349.828 351.806 351.795 351.761 354.903C351.71 358.302 351.749 361.702 351.748 365.102Z" fill="white"/>
<path fill-rule="evenodd" clip-rule="evenodd" d="M584.38 384.318C584.338 371.234 584.294 358.15 584.264 345.067C584.262 344.44 584.049 343.461 585.078 343.555C586.397 343.674 588.084 342.649 588.965 344.391C589.628 345.704 590.081 345.478 591.179 344.76C595.697 341.805 603.039 344.748 604.859 349.834C605.83 352.547 606.01 355.223 606.005 358.004C605.99 366.758 605.932 375.512 606.047 384.264C606.073 386.301 605.494 387.078 603.488 386.774C602.906 386.685 602.29 386.694 601.707 386.774C599.96 387.016 599.593 386.211 599.604 384.587C599.674 374.899 599.643 365.21 599.631 355.522C599.629 354.346 599.761 353.137 599.032 352.074C597.798 350.276 596.148 349.463 593.989 350.017C591.537 350.649 590.66 352.442 590.66 354.802C590.656 363.641 590.687 372.479 590.635 381.317C590.626 382.977 591.033 384.686 590.317 386.309C590.317 375.303 590.317 364.297 590.317 352.863C589.567 354.047 589.824 354.9 589.822 355.7C589.8 364.862 589.812 374.024 589.802 383.185C589.801 384.17 590.036 385.43 588.447 385.343C587.42 385.288 585.886 386.053 585.729 384.057C585.697 383.658 585.701 383.018 585.187 383.158C584.838 383.251 584.643 383.912 584.38 384.318Z" fill="white"/>
<path fill-rule="evenodd" clip-rule="evenodd" d="M39.3015 350.935C40.836 346.042 45.6888 342.888 50.6792 343.54C55.9868 344.233 60.0982 348.736 60.2589 354.141C60.4318 359.97 58.5678 364.787 53.3024 367.913C51.0414 369.256 48.9669 370.94 46.6311 372.12C44.172 373.361 44.8474 375.368 45.0979 377.162C45.3552 379.009 46.7611 380.068 48.6115 380.357C50.6683 380.679 52.8646 380.028 53.2261 378.106C53.8919 374.569 56.5607 374.377 59.0382 373.599C59.3568 373.499 59.6768 373.404 60.0043 373.305C61.0207 379.483 57.6956 385.078 52.2736 386.386C46.4718 387.787 41.1097 384.91 39.3117 379.431C39.1905 377.855 39.9346 376.164 38.6949 374.736C38.4321 373.479 38.4368 372.223 38.6921 370.966C38.6302 364.281 39.6507 357.629 39.3015 350.935ZM44.9522 366.156C46.9204 364.87 48.3917 363.894 49.8779 362.941C53.1185 360.862 54.0451 357.734 53.8572 354.124C53.7279 351.641 51.808 349.823 49.385 349.801C47.0872 349.78 45.0625 351.503 44.9862 353.887C44.8617 357.783 44.9522 361.686 44.9522 366.156Z" fill="white"/>
<path fill-rule="evenodd" clip-rule="evenodd" d="M557.595 364.807C557.595 361.071 557.696 357.331 557.572 353.6C557.377 347.719 563.696 343.514 567.91 343.48C573.593 343.432 578.787 347.663 578.966 353.261C579.219 361.149 579.285 369.062 578.97 376.945C578.65 384.927 569.226 389.301 562.439 385.053C559.061 382.94 557.587 380.084 557.576 376.27C557.565 372.45 557.574 368.629 557.574 364.808C557.58 364.807 557.587 364.807 557.595 364.807ZM563.726 365.228C563.729 365.228 563.732 365.228 563.736 365.228C563.736 368.714 563.695 372.202 563.749 375.687C563.791 378.487 565.47 380.282 568.029 380.422C570.65 380.566 572.784 378.773 572.835 375.902C572.961 368.762 572.957 361.615 572.841 354.474C572.796 351.611 570.669 349.727 568.119 349.819C565.538 349.913 563.779 351.844 563.738 354.768C563.689 358.255 563.726 361.741 563.726 365.228Z" fill="white"/>
<path fill-rule="evenodd" clip-rule="evenodd" d="M65.4508 364.988C65.4481 358.607 65.4222 352.226 65.4801 345.845C65.4875 345.06 64.8176 343.68 66.2433 343.58C67.4769 343.494 69.1013 342.754 69.968 344.274C70.7373 345.624 71.2779 345.39 72.4414 344.67C78.3161 341.038 86.7391 346.233 86.9454 353.698C87.1265 360.244 86.9937 366.799 86.9985 373.35C87.0012 377.093 86.9379 380.838 87.0353 384.579C87.0775 386.179 86.6948 386.817 84.9349 386.801C80.7513 386.762 80.7493 386.859 80.7486 382.649C80.7473 373.289 80.7765 363.93 80.7282 354.572C80.7139 351.811 78.8975 349.921 76.4187 349.807C73.9773 349.695 71.9859 351.505 71.668 354.183C71.5781 354.939 71.621 355.712 71.6203 356.478C71.6162 365.751 71.4978 375.028 71.687 384.297C71.7429 387.028 70.341 386.834 68.5777 386.772C66.9472 386.714 65.2677 387.301 65.3786 384.384C65.6237 377.927 65.4542 371.454 65.4508 364.988Z" fill="white"/>
<path fill-rule="evenodd" clip-rule="evenodd" d="M462.699 344.542C462.752 358.047 462.809 371.551 462.849 385.056C462.85 385.685 463.075 386.669 462.124 386.673C460.851 386.68 459.283 387.44 458.361 385.996C457.541 384.713 456.958 384.96 455.815 385.668C450.202 389.148 441.654 384.211 441.422 376.993C441.078 366.299 441.323 355.587 441.275 344.881C441.269 343.701 441.802 343.534 442.809 343.469C447.484 343.165 447.484 343.136 447.486 347.82C447.491 356.911 447.46 366.001 447.516 375.092C447.538 378.821 449.907 380.986 453.043 380.352C454.371 380.083 455.31 379.259 456.116 378.236C457.581 377.81 457.029 376.581 457.033 375.681C457.075 367.14 457.059 358.598 457.059 350.056C457.058 344.506 457.058 344.506 462.699 344.542Z" fill="white"/>
<path fill-rule="evenodd" clip-rule="evenodd" d="M514.74 369.252C514.74 374.266 514.769 379.281 514.71 384.295C514.7 385.111 515.31 386.462 513.957 386.634C512.643 386.801 511.026 387.432 510.03 385.811C509.543 385.017 509.124 384.344 508.107 385.216C503.743 388.954 495.172 385.637 493.566 378.796C492.446 374.022 493.695 369.818 497.612 366.706C500.202 364.65 503.034 362.901 505.659 360.886C508.576 358.648 509.345 355.904 508.147 352.799C506.848 349.434 502.475 348.65 500.383 351.566C499.519 352.77 498.979 352.667 497.999 352.023C496.838 351.262 494.695 351.144 494.666 349.724C494.628 347.874 496.035 346.253 497.714 345.272C501.317 343.165 505.115 342.746 508.884 344.745C512.522 346.674 514.636 349.754 514.705 353.955C514.789 359.053 514.725 364.153 514.725 369.253C514.73 369.252 514.736 369.252 514.74 369.252ZM508.55 365.763C507.077 367.474 505.643 368.5 504.179 369.509C502.793 370.463 501.3 371.307 500.385 372.838C499.189 374.837 498.887 376.818 500.401 378.756C501.708 380.427 503.531 380.838 505.443 380.191C507.639 379.448 508.521 377.639 508.542 375.406C508.57 372.348 508.55 369.291 508.55 365.763Z" fill="white"/>
<path fill-rule="evenodd" clip-rule="evenodd" d="M298.809 369.347C298.813 374.36 298.841 379.373 298.785 384.386C298.776 385.194 299.381 386.508 297.969 386.677C296.772 386.82 295.095 387.393 294.403 386.165C293.353 384.306 292.605 385.041 291.311 385.788C285.88 388.926 277.964 384.081 277.32 377.277C276.895 372.785 278.454 369.09 282.076 366.37C284.655 364.434 287.38 362.691 289.928 360.717C292.557 358.682 293.241 356.133 292.271 353.014C291.746 351.322 290.615 350.263 288.886 349.924C287.196 349.594 285.619 349.884 284.549 351.356C282.449 354.244 281.108 351.1 279.542 350.637C277.682 350.087 278.906 348.676 279.452 347.772C281.424 344.503 284.648 343.514 288.177 343.54C292.216 343.57 295.3 345.52 297.383 348.974C298.363 350.6 298.835 352.377 298.818 354.308C298.779 359.321 298.806 364.334 298.809 369.347ZM292.547 365.952C290.52 368.13 288.473 369.348 286.526 370.693C285.443 371.442 284.574 372.371 284.041 373.528C283.166 375.427 283.133 377.338 284.644 378.989C285.988 380.456 287.72 380.812 289.537 380.188C291.51 379.512 292.494 377.941 292.532 375.886C292.591 372.763 292.547 369.639 292.547 365.952Z" fill="white"/>
<path fill-rule="evenodd" clip-rule="evenodd" d="M151.341 369.226C151.341 374.245 151.364 379.266 151.317 384.286C151.309 385.118 151.851 386.462 150.573 386.638C149.265 386.819 147.615 387.449 146.653 385.795C146.155 384.939 145.726 384.396 144.74 385.234C140.388 388.928 131.837 385.665 130.196 378.765C129.018 373.814 130.491 369.666 134.484 366.535C136.956 364.597 139.542 362.796 142.159 361.057C144.884 359.245 145.459 356.668 145.029 353.705C144.764 351.88 143.709 350.572 141.908 350.035C140.162 349.515 138.288 349.603 137.302 351.212C136.267 352.9 135.426 352.462 134.103 351.775C130.658 349.985 130.4 348.533 133.524 345.986C136.894 343.237 140.759 342.695 144.767 344.413C148.568 346.041 151.039 348.963 151.23 353.148C151.473 358.498 151.289 363.866 151.289 369.226C151.307 369.226 151.324 369.226 151.341 369.226ZM145.063 366.075C143.074 368.043 141.04 369.363 139.053 370.745C137.686 371.696 136.744 372.95 136.237 374.558C135.659 376.389 136.169 377.931 137.458 379.214C138.795 380.545 140.484 380.781 142.188 380.141C143.901 379.496 145.012 378.201 145.046 376.295C145.106 373.009 145.063 369.722 145.063 366.075Z" fill="white"/>
<path fill-rule="evenodd" clip-rule="evenodd" d="M0.049224 358.867C0.0499048 353.083 -0.0658304 347.297 0.0819058 341.517C0.231684 335.685 5.46779 331.026 11.2806 331.292C17.0756 331.556 21.5894 336.393 21.5922 342.182C21.5928 343.647 21.134 344.169 19.7151 344.014C18.9581 343.93 18.1765 343.916 17.4222 344.006C15.921 344.184 15.3729 343.713 15.3239 342.081C15.2409 339.315 13.3271 337.64 10.7421 337.663C8.1645 337.685 6.32563 339.386 6.30589 342.243C6.23032 353.469 6.23167 364.697 6.31065 375.924C6.32903 378.565 7.9868 380.196 10.3193 380.422C12.6272 380.645 14.6547 379.222 15.296 376.929C15.7242 375.4 19.5354 373.143 21.0175 373.493C21.6228 373.636 21.4948 374.065 21.5561 374.446C22.4983 380.359 18.0982 385.948 11.9485 386.651C5.88787 387.343 0.256181 382.758 0.0859781 376.728C-0.0821825 370.778 0.0485432 364.821 0.049224 358.867Z" fill="white"/>
<path fill-rule="evenodd" clip-rule="evenodd" d="M318.632 359.021C318.634 353.24 318.549 347.456 318.658 341.676C318.766 335.961 323.752 331.266 329.472 331.29C335.216 331.312 340.007 336.031 340.258 341.737C340.336 343.504 339.863 344.265 338.035 344.011C337.284 343.906 336.501 343.93 335.743 344.004C334.472 344.128 334.012 343.72 333.921 342.341C333.711 339.168 331.85 337.496 329.088 337.672C326.483 337.838 324.915 339.649 324.904 342.762C324.867 353.645 324.863 364.529 324.897 375.412C324.906 378.409 326.388 380.147 328.915 380.413C331.441 380.677 333.172 379.303 333.928 376.433C334.218 375.335 338.82 373.061 339.829 373.509C340.339 373.736 340.186 374.201 340.235 374.586C340.996 380.674 336.418 386.198 330.203 386.693C324.135 387.175 318.784 382.481 318.656 376.366C318.536 370.587 318.631 364.803 318.632 359.021Z" fill="white"/>
<path fill-rule="evenodd" clip-rule="evenodd" d="M156.611 375.275C156.198 373.195 157.029 372.767 159.258 373.503C161.219 374.152 163.294 373.944 163.2 377.143C163.135 379.368 165.784 380.749 168.143 380.386C170.499 380.022 172.203 377.889 171.977 375.459C171.788 373.429 170.804 371.784 169.336 370.38C166.807 367.962 163.857 366.082 161.152 363.892C154.311 358.355 155.349 347.488 163.106 343.925C166.902 342.181 170.609 342.706 173.929 345.175C177.462 347.804 178.525 351.547 178.25 355.781C178.234 356.028 178.178 356.461 178.068 356.485C176.429 356.846 174.987 355.904 173.421 355.728C172.592 355.635 171.954 355.337 172.01 354.305C172.037 353.803 171.981 353.279 171.859 352.792C171.277 350.472 169.207 349.041 166.904 349.326C164.483 349.627 162.979 351.345 162.961 353.846C162.942 356.407 164.065 358.481 165.937 360.088C168.319 362.133 170.834 364.023 173.289 365.985C178.29 369.982 179.755 376.959 176.593 381.702C173.763 385.948 168.978 387.7 164.113 386.271C159.696 384.972 156.659 380.634 156.611 375.275Z" fill="white"/>
<path fill-rule="evenodd" clip-rule="evenodd" d="M476.579 331.332C476.579 334.99 476.638 338.3 476.552 341.607C476.514 343.01 476.882 343.6 478.387 343.519C480.506 343.405 482.637 343.551 484.759 343.471C486.052 343.422 486.503 343.818 486.558 345.179C486.741 349.789 486.802 349.787 482.26 349.767C476.575 349.743 476.575 349.743 476.575 355.485C476.575 361.606 476.573 367.727 476.577 373.847C476.577 374.697 476.53 375.556 476.63 376.395C476.864 378.34 477.395 380.299 479.741 380.409C482.154 380.522 482.865 378.652 482.955 376.641C483.006 375.489 483.478 374.968 484.499 374.678C485.965 374.264 487.415 373.788 488.877 373.337C490.467 381.07 485.894 387.066 478.875 386.539C474.911 386.241 471.664 383.284 470.805 379.212C470.11 375.929 470.425 372.604 470.4 369.297C470.356 363.516 470.34 357.735 470.418 351.955C470.439 350.38 470.121 349.48 468.348 349.772C466.705 350.043 466.254 349.192 466.367 347.726C466.431 346.881 466.45 346.02 466.369 345.178C466.235 343.802 466.86 343.268 468.138 343.505C470.228 343.893 470.52 342.8 470.415 341.071C470.296 339.124 470.49 337.156 470.353 335.21C470.251 333.754 470.734 333.041 472.155 332.718C473.546 332.401 474.89 331.872 476.579 331.332Z" fill="white"/>
<path fill-rule="evenodd" clip-rule="evenodd" d="M541.487 373.27C542.328 382.156 536.387 388.014 528.355 386.465C523.847 385.597 520.068 381.31 519.979 376.492C519.84 368.93 519.802 361.36 519.983 353.799C520.127 347.827 525.467 343.185 531.388 343.499C537.181 343.805 541.845 348.943 541.672 354.75C541.641 355.788 541.419 356.373 540.253 356.284C539.493 356.225 538.719 356.219 537.96 356.284C536.244 356.431 535.154 356.256 535.189 353.964C535.227 351.468 533.058 349.778 530.616 349.844C528.303 349.906 526.437 351.573 526.404 354.072C526.305 361.464 526.319 368.86 526.392 376.253C526.415 378.599 527.808 380.049 530.139 380.369C532.441 380.684 534.582 379.684 534.91 377.528C535.293 375.019 536.83 374.661 538.61 374.141C539.498 373.883 540.38 373.607 541.487 373.27Z" fill="white"/>
<path fill-rule="evenodd" clip-rule="evenodd" d="M113.777 373.271C115.034 382.481 107.767 388.055 100.616 386.461C96.3535 385.512 92.5239 381.577 92.4211 377.193C92.2332 369.208 92.1774 361.21 92.4163 353.228C92.5852 347.59 98.0616 343.158 103.774 343.509C109.571 343.865 114.221 349.1 113.948 354.843C113.895 355.952 113.586 356.367 112.483 356.281C111.553 356.208 110.604 356.179 109.681 356.287C108.165 356.464 107.673 355.975 107.611 354.367C107.502 351.558 105.346 349.679 102.831 349.811C100.355 349.941 98.6321 351.809 98.6131 354.634C98.5661 361.688 98.5681 368.745 98.6206 375.799C98.641 378.484 100.073 380.084 102.459 380.388C104.921 380.702 106.995 379.377 107.499 376.785C107.756 375.466 108.328 374.907 109.496 374.591C110.881 374.216 112.242 373.749 113.777 373.271Z" fill="white"/>
<path fill-rule="evenodd" clip-rule="evenodd" d="M269.084 332.547C269.483 332.131 270.009 332.257 270.496 332.214C271.385 332.167 272.098 332.46 272.547 333.267C272.548 333.633 272.55 333.998 272.551 334.364C271.938 335.298 272.224 336.347 272.221 337.342C272.196 353.724 272.195 370.105 272.189 386.486C271.886 386.762 271.551 386.743 271.202 386.593C271.164 386.217 271.219 385.668 270.789 385.613C270.093 385.523 270.242 386.181 270.159 386.602C269.146 386.845 268.132 386.843 267.117 386.602C267.113 370.642 267.147 354.681 267.064 338.722C267.051 336.351 267.232 334.223 269.084 332.547Z" fill="white"/>
<path fill-rule="evenodd" clip-rule="evenodd" d="M33.1619 365.94C33.1605 372.052 33.0686 378.165 33.2109 384.273C33.2593 386.333 32.6288 387.076 30.6409 386.779C30.1432 386.705 29.6156 386.709 29.1158 386.781C27.3416 387.037 26.7813 386.324 26.8079 384.533C26.9018 378.168 26.8426 371.801 26.8413 365.435C26.8406 360.172 26.9699 354.905 26.7786 349.649C26.6928 347.283 27.4383 346.208 29.7286 345.589C33.505 344.569 33.1619 343.917 33.1633 348.115C33.164 354.057 33.1626 359.998 33.1619 365.94Z" fill="white"/>
<path fill-rule="evenodd" clip-rule="evenodd" d="M552.037 344.514C552.037 351.463 552.037 358.078 552.037 364.692C552.037 371.315 551.974 377.938 552.08 384.559C552.109 386.373 551.55 387.027 549.787 386.779C549.12 386.685 548.423 386.702 547.752 386.78C546.159 386.964 545.751 386.261 545.758 384.734C545.815 372.678 545.814 360.621 545.772 348.565C545.766 347.18 546.038 346.354 547.536 346.022C548.987 345.699 550.375 345.085 552.037 344.514Z" fill="white"/>
<path fill-rule="evenodd" clip-rule="evenodd" d="M124.276 365.768C124.279 371.968 124.206 378.17 124.323 384.368C124.358 386.256 123.869 387.064 121.921 386.777C121.173 386.667 120.39 386.708 119.631 386.772C118.37 386.877 118.045 386.274 118.048 385.109C118.076 372.793 118.081 360.478 118.049 348.162C118.046 347.055 118.358 346.408 119.461 346.141C120.2 345.961 120.946 345.737 121.627 345.404C123.57 344.453 124.391 344.674 124.327 347.169C124.167 353.365 124.274 359.568 124.276 365.768Z" fill="white"/>
<path fill-rule="evenodd" clip-rule="evenodd" d="M269.084 332.547C267.232 334.223 267.051 336.352 267.063 338.722C267.147 354.681 267.113 370.642 267.117 386.602C265.642 386.49 266.279 385.337 266.277 384.666C266.241 368.276 266.315 351.884 266.185 335.495C266.166 333.106 267.55 332.962 269.084 332.547Z" fill="white"/>
<path fill-rule="evenodd" clip-rule="evenodd" d="M124.248 334.879C124.28 337.492 123.02 339.186 121.266 339.157C119.551 339.129 118.058 337.277 118.071 335.196C118.085 333.136 119.652 331.16 121.334 331.322C123.575 331.537 124.105 333.237 124.248 334.879Z" fill="white"/>
<path fill-rule="evenodd" clip-rule="evenodd" d="M26.8725 335.151C26.9106 333.165 28.58 331.239 30.2146 331.293C31.8527 331.348 33.3082 333.307 33.1224 335.435C32.959 337.307 32.3782 339.025 30.0533 339.094C28.354 339.144 26.8337 337.184 26.8725 335.151Z" fill="white"/>
<path fill-rule="evenodd" clip-rule="evenodd" d="M545.803 335.09C545.845 333.043 547.512 331.053 549.138 331.322C551.277 331.676 551.964 333.313 552.012 335.245C552.068 337.498 550.636 339.195 548.878 339.112C547.129 339.029 545.76 337.238 545.803 335.09Z" fill="white"/>
<path fill-rule="evenodd" clip-rule="evenodd" d="M584.38 384.318C584.643 383.911 584.838 383.251 585.187 383.156C585.701 383.017 585.697 383.656 585.729 384.055C585.886 386.051 587.42 385.286 588.447 385.342C590.036 385.428 589.801 384.168 589.802 383.183C589.812 374.022 589.8 364.86 589.822 355.698C589.824 354.898 589.567 354.045 590.317 352.861C590.317 364.295 590.317 375.301 590.317 386.307C588.719 387.55 586.853 386.937 585.165 386.82C583.718 386.722 584.384 385.258 584.38 384.318Z" fill="white"/>
<path fill-rule="evenodd" clip-rule="evenodd" d="M272.189 386.486C272.195 370.105 272.196 353.723 272.221 337.342C272.223 336.348 271.938 335.299 272.551 334.364C272.589 345.38 272.633 356.396 272.662 367.412C272.677 373.006 272.691 378.602 272.642 384.196C272.635 384.951 273.158 385.892 272.189 386.486Z" fill="white"/>
<path fill-rule="evenodd" clip-rule="evenodd" d="M573.562 335.012C569.406 339.846 569.406 339.846 565.263 339.376C566.785 334.942 567.423 334.594 573.562 335.012Z" fill="white"/>
<path fill-rule="evenodd" clip-rule="evenodd" d="M462.699 344.542C457.058 344.506 457.058 344.506 457.058 350.054C457.058 358.596 457.074 367.139 457.033 375.68C457.029 376.58 457.581 377.808 456.116 378.234C456.715 376.963 456.632 375.6 456.632 374.251C456.635 365.014 456.762 355.773 456.553 346.54C456.491 343.808 457.377 343.116 459.807 343.481C460.553 343.593 461.331 343.471 462.092 343.503C462.786 343.533 462.926 343.946 462.699 344.542Z" fill="white"/>
<path fill-rule="evenodd" clip-rule="evenodd" d="M39.3014 350.935C39.6514 357.629 38.6308 364.281 38.6921 370.966C38.3653 365.079 38.4634 359.19 38.6506 353.303C38.6765 352.5 38.6199 351.594 39.3014 350.935Z" fill="white"/>
<path fill-rule="evenodd" clip-rule="evenodd" d="M38.6949 374.736C39.9346 376.165 39.1912 377.854 39.3117 379.431C38.5281 377.942 38.3715 376.37 38.6949 374.736Z" fill="white"/>
<path fill-rule="evenodd" clip-rule="evenodd" d="M272.547 333.267C272.098 332.459 271.385 332.166 270.496 332.214C271.691 331.57 273.045 330.617 272.547 333.267Z" fill="white"/>
<path fill-rule="evenodd" clip-rule="evenodd" d="M270.159 386.602C270.242 386.182 270.092 385.523 270.788 385.613C271.218 385.668 271.164 386.218 271.202 386.593C270.854 386.596 270.507 386.599 270.159 386.602Z" fill="white"/>
</svg>
