<svg width="400" height="312" viewBox="0 0 400 312" fill="none" xmlns="http://www.w3.org/2000/svg">
<path fill-rule="evenodd" clip-rule="evenodd" d="M399.92 307.437C391.279 307.424 382.644 307.104 374.016 306.7C362.994 306.182 351.974 305.596 340.965 304.872C329.438 304.115 317.914 303.295 306.412 302.195C296.053 301.204 285.681 300.35 275.324 299.333C263.882 298.209 252.452 296.96 241.016 295.779C229.011 294.539 216.999 293.353 204.997 292.072C193.923 290.891 182.829 289.934 171.727 289.07C150.544 287.419 129.336 286.5 108.086 287.247C95.7026 287.682 83.3659 288.74 71.1001 290.55C52.6322 293.275 34.6312 297.833 17.1325 304.339C11.6794 306.367 6.30661 308.601 1.00216 310.996C0.688513 311.137 0.391951 311.431 0 311.186C0 310.77 0 310.353 0 309.937C10.1541 303.51 20.6672 297.766 31.7068 292.986C42.5035 288.31 53.5939 284.506 64.9776 281.569C80.1112 277.665 95.4889 275.258 111.064 273.927C129.305 272.369 147.555 272.403 165.814 273.156C179.331 273.715 192.821 274.735 206.283 276.109C218.132 277.317 229.991 278.434 241.836 279.688C255.491 281.133 269.139 282.646 282.815 283.888C302.357 285.662 321.922 287.04 341.557 287.061C344.758 287.065 347.467 288.57 350.329 289.571C360.965 293.29 371.557 297.14 382.161 300.952C387.489 302.867 392.807 304.812 398.136 306.723C398.705 306.928 399.255 307.312 399.92 307.125C399.92 307.229 399.92 307.333 399.92 307.437Z" fill="#1C3A6C"/>
<path fill-rule="evenodd" clip-rule="evenodd" d="M145.865 258.037C138.341 258.464 130.619 257.466 123.021 255.804C115.421 254.142 108.034 251.746 101.029 248.203C97.3188 246.326 93.5913 244.458 90.2557 242.032C85.0741 238.263 80.5486 233.796 77.3184 228.12C73.4397 221.304 72.0398 213.966 72.5296 206.255C72.8787 200.755 74.1678 195.404 75.9935 190.2C77.7995 185.053 79.9696 180.053 82.5313 175.243C84.7413 171.093 87.136 167.039 89.4647 162.953C91.7952 158.864 94.0932 154.747 96.3836 150.63C98.2747 147.231 100.286 143.898 102.251 140.541C103.973 137.601 105.607 134.599 107.411 131.709C110.451 126.841 113.442 121.944 116.576 117.131C119.631 112.437 122.63 107.702 125.77 103.064C132.02 93.8288 138.524 84.7711 145.598 76.1511C150.794 69.8207 156.24 63.6999 161.78 57.6602C169.133 49.643 176.784 41.9206 184.578 34.3444C191.078 28.0265 197.733 21.8682 204.942 16.3305C208.401 13.6731 211.863 11.0227 215.545 8.69891C221.291 5.07139 227.231 1.8329 234.008 0.457529C238.451 -0.443833 242.789 0.0647554 247.053 1.301C250.392 2.26859 251.903 4.92311 252.392 8.1391C252.623 9.659 252.667 11.2397 252.823 12.775C253.125 15.7461 251.769 17.9204 249.897 19.8522C245.228 24.6689 240.17 29.0354 234.533 32.7095C233.031 33.6884 231.565 33.9749 229.826 33.3731C227.179 32.4571 224.49 31.6499 221.793 30.8902C219.144 30.1433 216.51 30.6619 214.003 31.4987C206.276 34.0782 200.069 39.0632 193.936 44.2244C187.627 49.5338 181.966 55.4831 176.446 61.5539C169.368 69.3384 162.712 77.4869 156.328 85.8644C150.9 92.9875 145.409 100.064 140.271 107.398C135.869 113.684 131.585 120.054 127.433 126.515C123.5 132.633 119.814 138.884 116.225 145.204C112.966 150.943 109.933 156.803 107.232 162.805C104.448 168.988 101.876 175.343 100.757 182.06C99.3206 190.689 100.342 199.025 105.215 206.601C108.236 211.297 112.2 214.993 116.708 218.243C119.844 220.504 123.204 222.361 126.653 223.973C130.577 225.807 134.729 227.16 138.902 228.417C143.684 229.858 148.596 230.575 153.483 231.447C154.646 231.654 155.862 231.753 157.034 231.776C160.773 231.849 164.505 232.431 168.242 232.115C173.342 231.685 178.447 231.406 183.532 230.677C193.251 229.283 202.773 227.067 212.141 224.226C218.189 222.392 224.2 220.412 230.09 218.066C236.305 215.591 242.548 213.186 248.587 210.302C252.759 208.31 256.667 205.84 260.519 203.296C266.932 199.063 272.881 194.243 278.559 189.061C282.16 185.775 285.654 182.378 288.967 178.825C294.152 173.264 299.588 167.958 305.008 162.64C307.81 159.889 310.748 157.243 313.973 154.947C315.1 154.145 315.656 154.51 316.57 155.345C319.51 158.033 318.727 160.973 317.442 164.009C314.871 170.088 311.187 175.462 307.029 180.551C304.029 184.224 300.754 187.642 297.276 190.84C292.814 194.943 288.192 198.869 283.448 202.657C279.514 205.798 275.562 208.905 271.418 211.757C265.364 215.922 259.231 219.979 252.848 223.621C245.381 227.881 237.8 231.933 230.032 235.641C224.992 238.047 219.951 240.455 214.811 242.625C210.569 244.415 206.272 246.088 201.931 247.66C194.847 250.225 187.658 252.384 180.342 254.104C174.403 255.5 168.403 256.577 162.31 257.204C156.933 257.755 151.573 258.218 145.865 258.037Z" fill="#DEDEDC"/>
<path fill-rule="evenodd" clip-rule="evenodd" d="M274.774 41.7834C281.669 41.7376 290.954 43.3179 299.83 46.9329C306.717 49.7378 313.18 53.2725 318.109 59.0447C324.341 66.3426 325.493 74.7485 323.245 83.803C321.342 91.4695 317.54 98.2706 313.403 104.908C306.144 116.552 298.88 128.187 291.065 139.479C278.059 158.27 262.899 175.104 245.893 190.328C238.834 196.648 231.676 202.833 223.596 207.84C219.031 210.667 214.313 213.177 208.863 213.852C206.186 214.184 203.57 213.829 201.007 213.04C198.564 212.287 197.537 210.488 197.163 208.069C196.581 204.308 197.544 201.289 200.661 198.884C203.664 196.567 206.524 194.074 209.779 192.089C211.017 191.334 212.196 191.282 213.485 191.801C214.159 192.071 214.893 192.219 215.53 192.553C219.823 194.806 223.914 193.748 227.91 191.776C234.858 188.345 240.601 183.287 246.087 177.944C259.129 165.238 270.514 151.112 281.304 136.488C287.296 128.365 292.8 119.92 297.627 111.05C300.414 105.93 302.979 100.676 304.305 94.9704C306.369 86.0964 304.105 78.3973 297.472 72.0761C292.11 66.9666 285.571 63.988 278.613 61.8013C266.214 57.9047 253.655 58.3662 241.098 60.6866C227.358 63.2253 214 67.119 201.457 73.3761C193.065 77.5617 185.821 83.4139 179.015 89.8243C173.261 95.2433 167.644 100.818 161.445 105.746C161.2 105.94 160.974 106.177 160.697 106.305C159.878 106.685 159.161 108.08 158.228 107.235C157.136 106.248 155.958 105.068 156.57 103.19C158.202 98.171 161.258 94.0366 164.75 90.237C172.337 81.984 181.289 75.3846 190.691 69.3737C202.824 61.6159 215.801 55.5292 229.23 50.4255C243.678 44.934 257.29 41.8251 274.774 41.7834Z" fill="#1C3A6C"/>
</svg>
